<svg viewBox="0 0 59 16" width="59" height="16" xmlns="http://www.w3.org/2000/svg" >
  <path d="m 8.0700125,12.000315 c -2.760346,0 -5.001178,-2.2401523 -5.001178,-5.0010283 0,-0.974172 0.284389,-1.875924 0.766972,-2.6450907 -0.07931,0.238681 -0.120324,0.494238 -0.120324,0.7594807 0,1.367157 1.106076,2.476486 2.473308,2.476486 1.365795,0 2.474595,-1.109329 2.474595,-2.476486 0,-1.3648107 -1.1088,-2.4739137 -2.474595,-2.4739137 -0.265243,0 -0.520951,0.04336 -0.756076,0.120401 0.765611,-0.479709 1.667968,-0.761828 2.637298,-0.761828 2.7603455,0 5.0011785,2.240076 5.0011785,5.0009507 0,2.760876 -2.240833,5.0010283 -5.0011785,5.0010283 m -4.243741,-0.757211 -1.413697,1.413092 c 1.447903,1.446767 3.448086,2.343827 5.657438,2.343827 4.4174165,0 8.0008095,-3.583243 8.0008095,-8.0007363 0,-2.2086697 -0.896907,-4.2101397 -2.343371,-5.6568317 l -1.416422,1.413017 0.0027,0.0023 C 11.226799,1.670312 9.7269835,0.999977 8.0699885,0.999977 c -3.312703,0 -5.999189,2.686183 -5.999189,5.9992637 0,1.65412 0.669881,3.1539363 1.755449,4.2390493 v 0.0048 z" />
  <path d="M 20.275292,12.835235 H 19.096584 V 6.2446137 h 1.178708 z M 19.679601,5.0532322 q -0.316857,0 -0.544994,-0.2027883 -0.215462,-0.2154626 -0.215462,-0.5703422 0,-0.3548796 0.215462,-0.557668 0.228137,-0.2154626 0.544994,-0.2154626 0.316857,0 0.532319,0.2154626 0.228137,0.2027884 0.228137,0.557668 0,0.3548796 -0.228137,0.5703422 -0.215462,0.2027883 -0.532319,0.2027883 z" />
  <path d="m 27.182749,6.8783273 q -0.53232,1.6983523 -1.077314,3.1432187 -0.544993,1.444867 -1.089987,2.813689 H 23.786044 Q 23.114307,10.896071 22.594662,8.7414451 22.087692,6.586819 21.644092,4.0519648 h 1.292776 q 0.177439,0.9885931 0.367554,1.9771863 0.190114,0.9885931 0.392902,1.9264892 0.202788,0.9252218 0.405577,1.7743979 0.202788,0.8491758 0.418251,1.5716098 0.50697,-1.3307987 1.077313,-2.9150825 0.570342,-1.5969581 1.064638,-3.2953105 h 1.064639 q 0.494297,1.6983524 1.077313,3.2953105 0.583017,1.5842838 1.089988,2.9150825 0.202788,-0.709759 0.405576,-1.5589355 0.202789,-0.8491761 0.392903,-1.7743979 0.202788,-0.9378961 0.392902,-1.9264892 0.190114,-1.0012675 0.367554,-1.9898606 h 1.254753 Q 32.252457,6.586819 31.732812,8.7414451 31.225841,10.896071 30.566779,12.835235 H 29.337375 Q 28.779707,11.466413 28.247387,10.021546 27.715068,8.5766796 27.182749,6.8783273 Z" />
  <path d="m 39.616179,9.5399241 q 0,0.7858049 -0.228137,1.4195179 -0.228137,0.633714 -0.646388,1.089988 -0.405576,0.456274 -0.975919,0.709759 Q 37.195393,13 36.523657,13 35.851921,13 35.281578,12.759189 34.711236,12.505704 34.292985,12.04943 33.887409,11.593156 33.659272,10.959442 33.431135,10.325729 33.431135,9.5399241 q 0,-0.7731304 0.228137,-1.406844 0.228137,-0.6463878 0.633713,-1.1026616 0.418251,-0.4562737 0.988593,-0.6970849 0.570343,-0.2534854 1.242079,-0.2534854 0.671736,0 1.242078,0.2534854 0.570343,0.2408112 0.975919,0.6970849 0.418251,0.4562738 0.646388,1.1026616 0.228137,0.6337136 0.228137,1.406844 z m -1.229404,0 q 0,-1.1153358 -0.506971,-1.7617236 -0.494297,-0.6590621 -1.356147,-0.6590621 -0.861851,0 -1.368821,0.6590621 -0.494297,0.6463878 -0.494297,1.7617236 0,1.1153359 0.494297,1.7743979 0.50697,0.646388 1.368821,0.646388 0.86185,0 1.356147,-0.646388 0.506971,-0.659062 0.506971,-1.7743979 z" />
  <path d="m 43.709947,6.1051967 q 0.152091,0 0.342205,0.025349 0.202788,0.012674 0.392902,0.050697 0.190114,0.025349 0.342206,0.063371 0.164765,0.025348 0.240811,0.050697 l -0.202789,1.026616 q -0.139417,-0.050697 -0.468948,-0.1140685 -0.316856,-0.076046 -0.823827,-0.076046 -0.329531,0 -0.659062,0.076046 -0.316857,0.063371 -0.418251,0.08872 V 12.835235 H 41.276486 V 6.5234477 q 0.418251,-0.1520913 1.039291,-0.278834 0.621039,-0.139417 1.39417,-0.139417 z" />
  <path d="m 48.551514,9.2103931 q 0.380228,0.2915082 0.798479,0.7224334 0.430925,0.4309255 0.836502,0.9378965 0.418251,0.494296 0.785805,1.013941 0.367554,0.506971 0.621039,0.950571 h -1.381495 q -0.26616,-0.4436 -0.62104,-0.899874 Q 49.248599,11.466413 48.868371,11.048162 48.488143,10.617237 48.09524,10.262358 47.702338,9.907478 47.347458,9.6666668 V 12.835235 H 46.168751 V 3.2027886 l 1.178707,-0.2027883 v 6.0076044 q 0.304183,-0.3041824 0.671737,-0.6717362 0.367553,-0.3675539 0.722433,-0.747782 0.35488,-0.3802282 0.671736,-0.7224335 0.316857,-0.3548796 0.544994,-0.6210393 h 1.381496 Q 51.048345,6.5614705 50.70614,6.9416986 50.363935,7.3219268 49.996381,7.7148292 49.628827,8.0950573 49.248599,8.4879597 48.881045,8.8681878 48.551514,9.2103931 Z" />
  <path d="m 54.318301,11.986058 q 0.722433,0 1.064639,-0.190114 0.354879,-0.190114 0.354879,-0.608365 0,-0.430925 -0.342205,-0.68441 Q 55.053408,10.249683 54.267604,9.9328265 53.887376,9.7807353 53.532496,9.628644 53.190291,9.4638785 52.936805,9.2484159 52.68332,9.0329533 52.531227,8.7287709 52.379136,8.4245883 52.379136,7.9809889 q 0,-0.8745248 0.646389,-1.3814956 0.646388,-0.5196451 1.761724,-0.5196451 0.278834,0 0.557668,0.038023 0.278834,0.025348 0.519645,0.076046 0.240811,0.038023 0.418251,0.08872 0.190114,0.050697 0.291508,0.08872 L 56.358858,7.3852981 Q 56.168744,7.2839039 55.763168,7.1825098 55.357591,7.0684413 54.787249,7.0684413 q -0.494297,0 -0.861851,0.2027884 -0.367554,0.190114 -0.367554,0.608365 0,0.2154626 0.07605,0.3802281 0.08872,0.1647655 0.253486,0.3041825 0.177439,0.1267427 0.430925,0.2408112 0.253485,0.1140684 0.608365,0.240811 0.468948,0.1774398 0.836502,0.3548796 0.367554,0.1647656 0.621039,0.3929024 0.26616,0.2281365 0.405577,0.5576675 0.139417,0.316857 0.139417,0.785805 0,0.912548 -0.684411,1.381496 -0.671736,0.468948 -1.926489,0.468948 -0.874525,0 -1.368822,-0.152091 -0.494297,-0.139417 -0.671737,-0.215463 l 0.215462,-1.013942 q 0.20279,0.07605 0.64639,0.228137 0.443599,0.152091 1.178707,0.152091 z" />
</svg>
