<svg viewBox="0 0 45 45" xmlns="http://www.w3.org/2000/svg" >
  <path d="M 0,0 V 7 H 7 V 0 Z M 8,0 V 4 H 9 V 3 H 10 V 4 H 9 v 1 h 2 v 1 h 1 v 2 h -1 v 1 h 2 V 8 6 5 h 1 V 1 H 13 V 4 H 12 V 0 Z m 6,1 h 1 V 0 h -1 z m 1,0 v 5 h 1 V 7 h 1 V 6 h 1 V 5 H 16 V 3 h 1 v 1 h 1 V 2 h 1 V 1 h -2 v 1 h -1 V 1 Z m 4,1 v 4 h 1 v 2 h -1 V 6 h -1 V 7 h -1 v 1 1 h -4 v 2 h 1 v 2 h 1 v -2 h 1 v -1 h 1 1 V 9 h 1 v 1 h 1 v 1 h 1 v 1 H 22 v 1 h 1 V 12 10 H 21 V 9 h 4 V 8 h 2 V 6 h -1 V 7 h -1 V 4 H 22 V 3 H 20 V 2 Z m 1,0 H 22 V 1 H 21 V 0 h -1 z M 22,1 h 1 v 1 h 2 v 2 h 1 V 1 h 1 V 0 H 25 V 1 H 24 V 0 H 22 Z m 5,0 v 1 h 1 V 1 Z m -1,3 v 1 h 1 V 4 Z m 1,1 v 1 h 1 V 5 Z m 1,0 h 1 v 1 h 1 V 5 h 2 V 9 H 31 V 6 h -1 v 3 h -2 v 1 h 1 v 1 h 3 v -1 h 2 V 9 h 1 V 8 H 33 V 6 h 1 V 5 h 3 V 3 h -1 V 1 h -1 V 4 H 32 V 3 H 31 V 4 H 29 V 3 h -1 z m 1,-2 h 2 V 2 h -2 z m 2,-1 h 1 v 1 h 2 V 1 H 33 V 0 h -1 v 1 h -1 z m 0,-1 V 0 h -2 v 1 z m 5,0 h 1 V 0 h -1 z m -2,5 V 7 h 1 V 6 Z m 1,1 v 1 h 1 V 7 Z m 1,0 h 1 V 6 h -1 z m -1,2 v 1 h 1 v 1 h 1 V 9 Z m 2,2 v 1 h 1 v -1 z m 1,0 h 1 v 1 h -1 v 1 h -3 v 2 h -1 v -2 h 1 v -2 h -1 v 1 h -1 v -1 h -1 v 3 h 1 v 1 h -1 v -1 h -1 v -2 h -2 v 2 h -2 v -2 h -1 v -1 h 1 V 9 h -1 v 1 h -1 v 2 h -1 v 1 h 1 1 v 2 h 1 v 1 h -3 v -1 H 22 v 2 h -1 v 1 H 23 v -1 h 3 v 2 h -1 v 1 h 1 V 22 h 2 v -2 h -1 v -1 -1 h 1 v -3 h 1 v 3 h 1 v 1 1 h -1 v 1 h 1 V 23 h 1 1 v 1 h -1 v 1 h 1 1 V 24 23 h 1 v -1 h -1 v -1 h 1 v -1 h 1 v -1 h -1 v -2 h -1 v -1 h 1 v 1 h 1 v 1 h 1 v 2 h -1 V 22 h 1 v 1 h -2 v 1 h 1 v 3 h 1 v -1 h 1 v -1 h 1 v 1 h 1 v 1 h -1 v -1 h -1 v 2 h -1 v 1 h 3 v -1 h 1 v 1 H 41 v 1 h 1 V 28 H 41 V 27 H 40 V 25 H 41 v -1 h 1 V 23 h 1 v 1 h 2 V 23 H 44 V 22 H 41 v -1 h 2 v -1 h -3 v -1 h -1 v -1 h 3 V 14 H 41 v -1 h -1 v -2 h 2 v -1 h 1 V 9 h 2 V 8 H 41 V 9 H 40 V 10 H 39 V 9 h -1 z m 1,-2 h 1 V 8 h -1 z m 4,1 v 1 h 1 v -1 z m -1,4 h 1 v -1 h -1 z m 1,0 v 2 h 1 v -2 z m 1,2 v 1 h 1 v -1 z M 41,25 v 1 h 1 v -1 z m 1,1 v 1 h 2 v -1 z m 0,4 v 1 h 1 v -1 z m 0,1 h -2 v 1 h -1 v -1 h -1 v 2 h 1 v 1 h 1 V 33 H 41 v -1 h 1 z m -2,3 v 2 h -1 v -1 h -1 v 1 h -1 v -1 h -1 v 3 h -1 v 1 h -2 v -1 h 1 v -2 h -2 v 2 h -1 v -1 h -1 v -1 h -1 v 1 h -1 v 1 h -1 v -1 h -1 v 2 h 1 V 41 h -1 v 2 h 1 v -1 h 2 v 1 h 1 v 1 h 1 v -1 h 1 V 42 H 31 V 41 h -1 v -2 h 1 v 1 h 1 v 2 h 1 v 1 h 1 V 42 41 h -1 v -1 h 1 V 41 h 1 v -1 h 1 V 41 h 3 v 1 h 1 v 3 h 2 V 44 H 41 v -2 h 1 V 41 H 41 v -3 h 1 V 37 H 41 v -3 z m 2,4 v 1 h 1 v 1 h 1 v -3 h -1 v 1 z m 0,4 v 1 h 1 v -1 z m 1,0 h 1 v 1 h 1 V 41 h -2 z m -4,0 h -1 v 1 h 1 z m -1,1 h -1 v 1 h 1 z m -1,1 h -1 v 1 h 1 z m -1,-3 h -1 v 1 h 1 z m -2,2 v 1 h 1 v -1 z m -1,0 h -1 v 2 h 1 z m -3,1 h -1 v 1 h 1 z m -4,-5 h -1 v -2 -1 H 23 v -1 h -1 v 1 h -2 v -1 h -2 v -1 h -1 v 1 1 h -1 v 1 h 1 v 2 h 2 v 1 H 16 V 41 h 3 v 1 H 22 V 41 h 1 v 1 h 1 V 41 h 1 v -1 h 1 z m -2,3 v 1 h -6 v 1 h -3 v -2 h 1 V 41 h -3 v -2 h -1 v -1 h 1 v 1 h 1 v 1 h 2 v -3 h -1 v 1 h -1 v -1 h 1 v -1 h -2 v 1 h -1 v -1 h -1 v -1 H 8 v 1 h 2 v 2 h 1 v 1 h -1 v -1 H 9 v 1 H 8 V 41 h 1 v 2 H 8 v 2 h 3 v -1 h -1 V 41 h 2 v 1 h 1 v 1 h 1 v 2 h 7 V 44 H 23 v 1 h 2 v -3 z m -13,2 h 1 v -1 H 11 Z M 9,38 V 37 H 8 v 1 z M 8,37 v -1 H 6 v 1 z m 0,-2 v -1 H 6 v 1 z m -2,-1 V 33 H 5 4 V 32 H 5 V 28 H 6 V 27 H 5 v -1 H 4 v 3 H 1 V 28 H 0 v 3 h 1 v 1 h 1 v -2 h 2 v 1 H 3 v 3 h 1 v 1 H 1 v 1 h 2 v 1 h 2 v -3 z m -5,2 H 0 v 1 h 1 z m 0,-8 H 2 V 27 H 1 Z M 2,27 H 3 V 25 H 7 v 1 h 1 2 v -2 h 1 v 1 h 1 v 1 h 1 v 2 h 1 v -2 h 1 v 1 h 1 v -1 h 1 v 1 h 1 v -2 h 2 v 3 h -6 v 1 h 1 v 1 h 1 v -1 h 1 v 1 h 1 v -1 h 3 V 28 H 22 v -1 h -1 v -1 h 1 1 v -1 h 1 v 1 H 23 v 1 h 1 1 v -1 h 1 v 1 h -1 v 1 h 1 1 v -1 -2 h 1 V 24 23 h -2 v -1 h -1 v -2 h -1 v -1 h -3 v 1 h -1 v 1 h -1 V 23 h 1 v 1 h -3 v 1 H 13 V 23 h 1 v 1 h 1 V 22 h -1 V 21 H 12 V 22 h -1 v 1 H 9 v -2 h 2 v -1 -1 h -1 v 1 H 8 v -1 H 7 v 1 H 4 v -1 H 7 v -1 H 6 V 17 H 5 v 1 H 3 v 1 H 2 v 1 H 1 v -1 H 0 v 2 H 2 V 22 H 3 V 21 H 4 V 23 H 3 v 1 H 2 1 v 2 h 1 z m -1,-3 V 23 H 2 V 22 H 0 v 2 z m 0,-5 h 1 v -1 h 1 v -1 -1 H 2 v -1 h 1 v -1 H 4 V 13 H 3 2 v 1 H 1 v -1 h 1 v -1 h 1 v -1 h 1 1 v -1 -1 H 7 V 8 H 4 V 9 H 3 V 10 H 2 V 8 H 0 v 3 h 1 v 1 H 0 v 4 h 1 v 1 H 0 v 1 H 1 Z M 7,9 V 10 H 6 v 1 H 9 V 9 Z M 6,11 H 5 v 1 h 1 z m 0,1 v 1 h 2 v 1 H 4 v 1 h 1 v 1 h 1 v -1 h 2 1 v -1 h 1 v 1 h 1 1 v -1 h 1 1 v -1 h -3 v -1 h 2 V 11 H 11 V 9 h -1 v 2 1 z m 0,4 v 1 H 7 v -1 z m -1,0 H 4 v 1 h 1 z m -1,0 v -1 H 3 v 1 z m 6,3 v -1 H 9 v 1 z m -1,-1 V 17 H 8 v 1 z m 0,-1 h 1 v -1 H 9 Z m 1,0 v 1 h 1 v 1 h 3 v -1 h -1 -1 v -1 h -1 z m 2,0 h 1 1 v 1 h 1 v -1 h 1 v -1 h 1 v 1 h 2 v -1 h -1 v -1 h -1 v -1 h -1 v 1 h -1 v 1 h -1 v -1 h -1 v 1 h -1 z m 5,-3 h 1 v -1 h 1 v -1 h -3 v 1 h 1 z m 2,-2 h 1 v -1 h -1 z m 0,-1 v -1 h -1 v 1 z m 0,2 v 2 h 2 v -1 H 22 v -1 z m -5,8 h 1 v -1 h -1 z m 1,-1 h 1 v 1 h 3 v -1 h 1 v -1 h 1 v -1 h -2 v 1 h -1 v 1 h -1 v -1 -1 h -1 v 1 h -1 z m 1,1 h -1 V 22 h 1 z m 1,3 V 23 h -1 v 1 z m 0,-1 h 1 v -1 h -1 z m 11,0 h 1 v -1 h -1 z m 1,0 v 1 1 h 1 V 24 23 Z m 1,2 v 1 h -2 v 1 h 2 v 1 h -1 v 2 h 1 v 2 h 2 v 1 h 1 v -1 h 2 v -1 h -2 v -1 h -2 v -5 z m 3,5 h 1 v -1 h -1 z m 0,-1 v -2 h -1 v 2 z m 1,0 h 1 v -2 h -1 z m -1,4 v 1 h 1 v -1 z m -3,-1 h -1 v 1 h -1 v 1 h 1 v 1 h 1 1 v -2 h -1 z m 1,3 v 1 h 1 v -1 z m -3,-2 v -1 h -1 v 1 z m -1,0 h -1 v 1 h -2 v 1 h 3 z m 0,2 v 2 h 1 v -2 z m -3,-1 v -1 h 1 V 32 H 23 v 1 h -3 v 1 z m -4,-1 v -1 -1 h -1 v 1 h -1 v -1 h -1 v -1 h -1 v 1 h -1 v 1 h 2 v 1 z m -5,-1 h -1 v -1 h -1 v 1 h -1 v 1 h 2 v 2 h 2 v -1 h -1 z m -3,1 h -1 v -1 h -1 v 2 h 1 v 1 h 1 v 1 h 1 v -2 h -1 z m 13,-1 h 1 1 v -1 -2 h -1 v 2 h -1 z m 0,-1 v -2 h -1 v 2 z m 2,-2 h 1 v -1 h -1 z m 2,1 h -1 v 1 h 1 z m -8,-1 v 3 H 22 v -1 h 1 V 29 H 22 Z M 7,26 H 6 v 1 H 7 Z m -1,2 v 1 h 2 v 1 h 1 1 v -1 H 9 v -1 z m 4,1 h 1 v -1 h -1 z m 1,-1 h 1 v -1 h -1 z m 0,1 v 1 h -1 v 1 h 2 v -1 h 1 v -1 z M 6,33 H 7 V 32 H 6 Z M 18,43 v -1 h -1 v 1 z m 16,-7 h 1 v -1 h -1 z m 1,-1 h 1 v -1 h 1 v -1 -3 h -1 v 3 h -1 z m 2,-1 v 1 h 1 v -1 z m 3,-5 h -1 v 1 h 1 z m -7,-4 v 1 h 1 v -1 z m -4,-7 h -1 v 1 h 1 z m -8,-1 v -1 h -1 v 1 z m 3,-4 H 23 v 1 h 1 z m 3,-4 h 1 V 8 h -1 z m 0,2 v 1 h 1 V 11 Z M 29,6 H 28 V 7 h 1 z M 23,2 h -1 v 1 h 1 z m -8,4 h -1 v 2 h 1 z M 11,8 V 6 h -1 V 7 H 9 V 8 Z M 9,7 V 5 H 8 V 7 Z M 38,0 v 7 h 7 V 0 Z M 1,1 H 6 V 6 H 1 Z m 8,0 H 10 V 2 H 9 Z m 30,0 h 5 V 6 H 39 Z M 2,2 V 5 H 5 V 2 Z m 38,0 v 3 h 3 V 2 Z M 21,5 h 3 V 8 H 21 Z M 22,6 V 7 h 1 V 6 Z m 22,6 v 1 h 1 v -1 z m -7,3 h 1 v 1 h 1 v -1 H 41 v 2 h -1 v -1 h -1 v 1 h -1 v 1 h -1 v -1 h -1 v -1 h 1 z m -7,1 h 2 v 2 h -1 v -1 h -1 z m 13,2 v 1 h 1 v -1 z m -12,1 h 1 V 22 h -1 z m 13,1 v 1 h 1 v -1 z m -39,1 h 3 v 3 H 7 5 Z m 16,0 h 3 v 3 h -3 z m 16,0 h 3 v 3 H 37 Z M 6,22 v 1 H 7 V 22 Z M 22,22 v 1 h 1 v -1 z m 16,0 v 1 h 1 v -1 z m 5,6 v 1 h 1 V 28 Z M 6,30 v 1 H 7 v -1 z m 2,1 v 1 H 9 V 31 Z M 0,33 v 1 h 1 v -1 z m 42,0 v 2 h 2 v -2 z m 2,2 v 1 h 1 v -1 z m -26,2 h 2 v 1 h -2 z m 3,0 h 3 v 3 h -3 z m 16,0 h 3 v 3 H 37 Z M 0,38 v 7 h 7 v -7 z m 22,0 v 1 h 1 v -1 z m 16,0 v 1 h 1 v -1 z m -37,1 h 5 v 5 H 1 Z m 27,0 h 1 V 41 H 28 Z M 2,40 v 3 h 3 v -3 z m 24,4 v 1 h 2 v -1 z m 18,0 v 1 h 1 v -1 z"
     />
</svg>
