<svg width="1367" height="680" viewBox="0 0 1367 680" fill="none" xmlns="http://www.w3.org/2000/svg">
<path d="M614.555 409.601L590.779 320.123L566.637 409.601H533.022L491.139 280.138H525.889L550.945 375.349L575.416 280.138H607.24L632.223 375.423L656.913 280.212H690.163L647.951 409.675L614.555 409.601Z" fill="white"/>
<path fill-rule="evenodd" clip-rule="evenodd" d="M762.076 411.079C801.727 411.079 831.356 382.412 831.356 344.719C831.356 307.212 801.581 279.1 762.076 279.1C722.571 279.1 692.979 306.842 692.979 344.719C692.979 382.597 722.425 411.079 762.076 411.079ZM726.227 344.814C725.957 354.779 729.609 364.446 736.383 371.691C743.178 378.958 752.555 383.19 762.442 383.451C782.158 383.451 797.887 366.658 797.887 344.834C797.887 323.01 782.195 306.661 762.442 306.661C752.601 306.805 743.229 310.934 736.422 318.123C729.638 325.289 725.968 334.899 726.227 344.814Z" fill="white"/>
<path fill-rule="evenodd" clip-rule="evenodd" d="M880.956 373.203H906.561L925.545 409.527H962.49L935.605 366.841C950.602 359.258 958.832 345.017 958.832 325.228C958.832 296.413 939.445 280.138 905.647 280.138H848.438V409.601H880.956V373.203ZM927.923 326.409C927.923 339.911 919.693 347.308 905.646 347.308H880.956V306.102H905.646C919.693 306.102 927.923 312.908 927.923 326.409Z" fill="white"/>
<path fill-rule="evenodd" clip-rule="evenodd" d="M1103.9 344.906C1103.9 306.474 1076.14 280.212 1035.9 280.212L980.889 280.138V409.601H1034.62C1075.74 409.601 1103.9 383.338 1103.9 344.906ZM1036.63 383.447H1013.41L1013.22 306.582H1035.17C1055.84 306.582 1070.8 322.451 1070.8 345.199C1070.8 367.948 1056.57 383.447 1036.63 383.447Z" fill="white"/>
<path d="M1236.24 355.267C1236.24 389.445 1213.75 411.084 1177.94 411.084C1142.13 411.084 1118.9 389.445 1118.9 355.267V280.215H1151.42V355.267C1151.42 372.837 1162.57 383.527 1178.12 383.527C1193.67 383.527 1203.91 372.837 1203.91 355.267V280.215H1236.24V355.267Z" fill="white"/>
<path fill-rule="evenodd" clip-rule="evenodd" d="M1366.94 325.309C1366.94 296.495 1348.32 280.219 1315.4 280.219L1259.65 280.33V409.793H1292.17V373.396H1315.4C1348.14 373.396 1366.94 355.641 1366.94 325.309ZM1313.75 347.322H1292.17V306.116H1313.75C1328.02 306.116 1336.25 312.922 1336.25 326.423C1336.25 339.924 1328.02 347.322 1313.75 347.322Z" fill="white"/>
<path d="M573.696 508.883L554.785 456.136L536.02 508.883H526.144L502.148 443.967H512.134L531.155 498.896L549.81 443.967H559.796L578.671 498.896L597.435 443.967H607.312L583.536 508.883H573.696Z" fill="white"/>
<path fill-rule="evenodd" clip-rule="evenodd" d="M674.58 509.363C684.786 509.363 692.979 505.923 698.064 498.895V509.104H707.099V466.233C706.989 452.288 698.21 443.817 682.372 443.817C672.93 443.736 663.725 446.804 656.181 452.547L660.205 459.575C666.056 455.026 673.167 452.439 680.543 452.177C691.882 452.177 697.735 457.836 697.735 467.343V471.042H676.629C661.522 471.042 652.633 478.328 652.633 489.536C652.633 500.744 661.266 509.363 674.58 509.363ZM698.065 478.697V486.465H697.809C695.358 495.453 687.091 501.002 676.374 501.002C667.485 501.002 661.742 496.304 661.742 489.165C661.742 482.026 667.375 478.697 678.093 478.697H698.065Z" fill="white"/>
<path d="M779.232 458.356C783.099 449.054 792.27 443.157 802.24 443.56V453.288C796.384 452.808 790.592 454.795 786.235 458.781C781.878 462.766 779.344 468.395 779.232 474.335V508.847H769.722V443.967H779.232V458.356Z" fill="white"/>
<path d="M893.906 449.479L890.248 457.135C885.019 453.793 878.985 451.963 872.8 451.846C865.484 451.846 860.144 454.435 860.144 460.464C860.144 474.89 895.954 467.492 895.954 490.759C895.954 503.594 884.761 509.254 872.471 509.254C863.424 509.429 854.64 506.169 847.853 500.117L851.511 492.719C857.383 497.988 864.949 500.92 872.8 500.968C880.372 500.968 886.48 498.157 886.59 491.721C886.956 476.074 850.999 484.101 851.145 461.056C851.145 448.628 861.717 443.449 873.422 443.449C880.683 443.409 887.8 445.503 893.906 449.479Z" fill="white"/>
<path d="M959.088 500.53H1000.28V508.89H947.639V501.492L987.875 452.296H948.773V443.937H999.324V451.334L959.088 500.53Z" fill="white"/>
<path fill-rule="evenodd" clip-rule="evenodd" d="M1072.92 509.362C1083.16 509.362 1091.32 505.922 1096.44 498.894L1096.18 509.103H1105.44V466.232C1105.29 452.287 1096.51 443.817 1080.67 443.817C1071.23 443.75 1062.03 446.816 1054.48 452.546L1058.51 459.574C1064.37 455.02 1071.49 452.433 1078.88 452.176C1090.18 452.176 1096.04 457.836 1096.04 467.342V471.041H1074.97C1059.86 471.041 1050.97 478.328 1050.97 489.536C1050.97 500.744 1059.64 509.362 1072.92 509.362ZM1096.44 478.697V486.465H1096.33C1093.88 495.453 1085.58 501.002 1074.75 501.002C1065.86 501.002 1060.12 496.304 1060.12 489.165C1060.12 482.026 1065.72 478.697 1076.43 478.697H1096.44Z" fill="white"/>
<path d="M1225.96 508.883L1207.09 456.136L1188.22 508.883H1178.34L1154.34 443.967H1164.33L1183.35 498.896L1201.97 443.967H1211.99L1230.87 498.896L1249.63 443.967H1259.51L1235.77 508.883H1225.96Z" fill="white"/>
<path fill-rule="evenodd" clip-rule="evenodd" d="M1326.89 509.363C1337.13 509.363 1345.29 505.923 1350.41 498.895L1350.15 509.104H1359.41V466.233C1359.3 452.288 1350.52 443.817 1334.68 443.817C1325.24 443.736 1316.03 446.804 1308.49 452.547L1312.51 459.575C1318.36 455.026 1325.47 452.439 1332.85 452.177C1344.19 452.177 1350.01 457.836 1350.01 467.343V471.042H1328.94C1313.83 471.042 1304.94 478.328 1304.94 489.536C1304.94 500.744 1313.61 509.363 1326.89 509.363ZM1350.41 478.697V486.465H1350.3C1347.85 495.453 1339.58 501.002 1328.72 501.002C1319.83 501.002 1314.09 496.304 1314.09 489.165C1314.09 482.026 1319.68 478.697 1330.44 478.697H1350.41Z" fill="white"/>
<path fill-rule="evenodd" clip-rule="evenodd" d="M415.403 350.128C411.67 341.298 407.089 332.851 401.725 324.906C391.071 309.121 377.487 295.53 361.71 284.87C311.584 251.004 245.919 251.004 195.793 284.87C187.965 290.241 180.658 296.333 173.967 303.068C160.343 316.542 149.449 332.521 141.882 350.128C122.342 396.348 127.489 449.319 155.56 490.908C171.664 514.784 194.347 533.471 220.857 544.702C267.053 564.252 319.997 559.102 361.565 531.017C369.401 525.658 376.71 519.564 383.391 512.819C390.123 506.124 396.212 498.813 401.58 490.981C429.554 449.357 434.696 396.437 415.258 350.201L415.403 350.128ZM147.12 407.931C147.115 389.471 150.994 371.217 158.506 354.356L221.257 526.364C175.913 504.351 147.122 458.357 147.12 407.931ZM241.52 534.15C253.576 537.728 266.086 539.542 278.661 539.537C293.541 539.538 308.313 537.015 322.35 532.075C322.023 531.493 321.695 530.911 321.404 530.256L280.989 419.43L241.52 534.15ZM296.849 346.195C304.743 345.794 311.91 344.957 311.91 344.957C314.923 344.716 317.171 342.076 316.93 339.061C316.689 336.046 314.05 333.797 311.037 334.038C311.037 334.038 289.756 335.713 276.005 335.713C263.055 335.713 241.337 334.038 241.337 334.038C238.324 333.807 235.694 336.064 235.463 339.079C235.231 342.094 237.487 344.726 240.501 344.957C240.501 344.957 247.231 345.794 254.324 346.195L274.805 402.39L246.03 488.758L198.085 346.195C206.015 345.794 213.145 344.957 213.145 344.957C216.159 344.716 218.406 342.076 218.165 339.061C217.924 336.046 215.286 333.797 212.272 334.038C212.272 334.038 190.991 335.713 177.241 335.713C174.767 335.713 171.857 335.713 168.765 335.531C189.955 303.35 224.178 282.079 262.402 277.331C300.626 272.583 339.009 284.835 367.422 310.854H365.712C353.176 311.231 343.305 321.677 343.631 334.22C343.631 344.217 348.875 352.688 354.869 362.37C355.423 363.264 355.982 364.168 356.545 365.084C363.508 375.959 367.288 388.567 367.458 401.48C367.458 412.763 363.82 426.084 357.927 444.864L344.358 487.703L296.849 346.195ZM344.955 521.303L344.831 521.663L344.649 521.481C344.751 521.422 344.853 521.362 344.955 521.303ZM344.955 521.303C406.323 485.35 428.062 407.091 393.977 344.596C394.561 349.086 394.852 353.608 394.85 358.136C394.636 374.41 391.238 390.484 384.846 405.451L344.955 521.303Z" fill="white"/>
<path fill-rule="evenodd" clip-rule="evenodd" d="M99.8672 407.409C99.8672 308.914 179.672 229.068 278.116 229.068C376.561 229.068 456.366 308.914 456.366 407.409C456.366 505.904 376.561 585.75 278.116 585.75C179.672 585.75 99.8672 505.904 99.8672 407.409ZM132.798 468.322C157.233 527.352 214.803 565.841 278.662 565.841C320.53 565.851 360.687 549.217 390.296 519.6C419.905 489.982 436.54 449.809 436.54 407.919C436.554 344.027 398.098 286.418 339.104 261.958C280.11 237.497 212.198 251.002 167.038 296.176C121.878 341.349 108.364 409.293 132.798 468.322Z" fill="white"/>
<path d="M456.329 588.961C459.967 567.888 452.691 542.92 438.14 528.071C435.811 543.901 430.464 559.136 422.389 572.947C407.838 597.66 386.485 610.18 362.839 617.605C334.501 626.522 285.028 618.77 258.582 599.189C245.432 589.86 233.935 578.394 224.569 565.268C153.703 541.23 107.54 472.879 111.685 398.128C115.831 323.376 169.268 260.555 242.357 244.509C228.134 239.814 214.201 235.919 201.724 232.753C201.542 231.734 201.396 230.715 201.215 229.768C200.565 226.072 199.665 222.424 198.523 218.85L209.872 219.396C219.767 219.905 226.606 208.877 228.061 199.087C228.243 186.348 225.078 183.327 221.259 172.699C218.783 163.638 217.259 154.343 216.711 144.966C215.838 136.413 215.656 128.442 215.62 123.456C215.658 123.08 215.658 122.702 215.62 122.327C215.821 112.818 212.174 103.631 205.507 96.85C195.431 85.6036 176.005 83.2014 160.617 83.2014C145.23 83.2014 131.588 86.9138 121.512 98.2694C110.108 110.864 103.501 127.074 102.85 144.056C102.85 155.375 101.359 171.062 103.25 183.655C104.743 193.098 112.202 200.472 121.657 201.853C129.443 203.044 137.288 203.81 145.157 204.146L144.502 204.4C137.227 210.515 129.951 217.103 124.64 221.725C89.7179 208.622 59.7794 199.887 59.7794 199.887C59.7794 199.887 84.516 112.828 111.945 75.3399C111.945 75.3399 123.04 54.8853 134.426 55.1765C136.458 55.1753 138.292 53.9566 139.082 52.0828H141.192V70.4628C141.192 73.102 143.32 75.2471 145.957 75.2671H153.742C155.016 75.2768 156.241 74.7799 157.148 73.8857C158.056 72.9916 158.571 71.7734 158.58 70.4992V51.7916C253.453 35.6318 414.168 80.0714 414.168 80.0714C314.785 21.0733 164.655 22.42 158.689 22.5292V4.87707C158.731 2.26506 156.679 0.0986236 154.07 0H146.285C143.647 -7.57352e-05 141.503 2.12878 141.483 4.76789V23.1479H137.19C136.388 20.4579 134.759 18.0892 132.534 16.3782C125.04 12.3747 89.5361 11.4284 89.2814 22.8203C86.075 22.8201 83.4645 25.3995 83.4247 28.6073V45.9683C83.4185 48.6505 85.2554 50.9855 87.8627 51.6096L87.317 57.5786C29.1132 124.402 4.34025 187.185 0.302361 202.835C-0.371439 205.39 0.0928895 208.111 1.57557 210.297C16.8904 232.753 44.1371 253.972 71.7112 271.224C56.6873 290.004 53.5225 315.554 73.3118 332.769C85.5346 343.47 64.3993 411.567 64.7995 427.836V437.736C62.2167 524.831 94.7744 588.998 166.656 641.554C237.41 693.309 342.832 686.721 416.86 657.532C450.509 644.283 481.866 627.359 508.64 599.298C492.6 590.776 474.403 587.18 456.329 588.961Z" fill="white"/>
</svg>
