<?xml version="1.0" encoding="UTF-8" standalone="no"?>
<svg xmlns:svg="http://www.w3.org/2000/svg" xmlns="http://www.w3.org/2000/svg" viewBox="0 0 696.99999 190" height="190" width="697" ><path fill="#102d5d" d="m 261.47547,159.88513 c 1.108,0 2.004,-0.28 2.69067,-0.84267 0.688,-0.56266 1.03066,-1.42133 1.03066,-2.576 0,-1.156 -0.34266,-2.01333 -1.03066,-2.576 -0.68667,-0.56133 -1.58267,-0.84266 -2.69067,-0.84266 h -5.48 v 6.83733 z m 0.35067,-8.19467 c 0.74933,0 1.428,0.104 2.03733,0.31467 0.60667,0.21067 1.13067,0.52267 1.568,0.93733 0.43733,0.41334 0.772,0.91734 1.00667,1.51067 0.232,0.59333 0.352,1.264 0.352,2.01333 0,0.75067 -0.12,1.42 -0.352,2.01334 -0.23467,0.59333 -0.56934,1.09733 -1.00667,1.51066 -0.43733,0.41334 -0.96133,0.72534 -1.568,0.936 -0.60933,0.21067 -1.288,0.31734 -2.03733,0.31734 h -5.83067 v 7.16533 h -1.59467 v -16.71867 z" /><path fill="#102d5d" d="m 276.36614,161.85193 -3.232,-8.57067 -3.348,8.57067 z m -2.27067,-10.16267 6.55467,16.71867 h -1.70667 l -2.03866,-5.19733 h -7.60934 l -2.01333,5.19733 h -1.688 l 6.72,-16.71867 z" /><path fill="#102d5d" d="m 287.74627,150.66699 2.45733,-3.30133 h 1.82667 l -3.08933,3.30133 z m -3.816,1.02267 9.73867,14.14266 h 0.0493 v -14.14266 h 1.58933 v 16.71866 h -1.77866 l -9.74134,-14.14266 h -0.0453 v 14.14266 h -1.592 v -16.71866 z" /><path fill="#102d5d" d="m 299.80494,165.05953 c 0.28,0.57867 0.668,1.03867 1.15867,1.38267 0.49333,0.34266 1.072,0.58933 1.74666,0.736 0.67067,0.14933 1.38667,0.22266 2.15334,0.22266 0.43466,0 0.91333,-0.0627 1.428,-0.18666 0.51333,-0.12534 0.99333,-0.324 1.44,-0.59734 0.44533,-0.27333 0.81466,-0.624 1.11066,-1.05333 0.29734,-0.42933 0.444,-0.948 0.444,-1.55733 0,-0.46934 -0.104,-0.87334 -0.31466,-1.21867 -0.20934,-0.34267 -0.484,-0.63067 -0.82,-0.86667 -0.33467,-0.23333 -0.70667,-0.424 -1.11067,-0.572 -0.40667,-0.14933 -0.80533,-0.26933 -1.19467,-0.364 l -3.724,-0.91333 c -0.48266,-0.124 -0.956,-0.28 -1.41466,-0.46667 -0.46267,-0.188 -0.86534,-0.43733 -1.208,-0.74933 -0.34134,-0.31333 -0.61867,-0.696 -0.83067,-1.148 -0.21067,-0.45333 -0.31733,-1.008 -0.31733,-1.66267 0,-0.40533 0.08,-0.88133 0.23733,-1.428 0.15467,-0.54666 0.44667,-1.06133 0.876,-1.54666 0.428,-0.48267 1.01867,-0.892 1.768,-1.22934 0.74933,-0.336 1.71067,-0.50266 2.88133,-0.50266 0.82667,0 1.616,0.10933 2.36267,0.328 0.74933,0.21866 1.40533,0.54533 1.96933,0.98266 0.56134,0.43734 1.008,0.98134 1.34667,1.628 0.33467,0.64667 0.50267,1.40134 0.50267,2.26 h -1.592 c -0.032,-0.64133 -0.176,-1.19866 -0.43467,-1.67466 -0.25733,-0.476 -0.59333,-0.87467 -1.00667,-1.19334 -0.41466,-0.32133 -0.88933,-0.56266 -1.428,-0.72666 -0.53866,-0.16267 -1.10533,-0.24534 -1.69733,-0.24534 -0.54533,0 -1.07467,0.0573 -1.58133,0.17467 -0.50667,0.11867 -0.95067,0.304 -1.33467,0.56267 -0.38267,0.25733 -0.68933,0.59733 -0.92533,1.01866 -0.23467,0.42 -0.35067,0.944 -0.35067,1.568 0,0.39067 0.0653,0.73067 0.20133,1.01867 0.13067,0.28933 0.31467,0.53467 0.548,0.73867 0.23467,0.20266 0.50267,0.36666 0.808,0.49066 0.30534,0.124 0.628,0.22667 0.97334,0.30534 l 4.07333,1.00666 c 0.59467,0.156 1.15067,0.348 1.67333,0.57334 0.524,0.22666 0.984,0.508 1.38267,0.84266 0.396,0.33734 0.70933,0.74534 0.93467,1.22934 0.22666,0.484 0.34133,1.07066 0.34133,1.756 0,0.188 -0.0213,0.43866 -0.0587,0.74933 -0.0387,0.31333 -0.132,0.644 -0.28266,0.996 -0.148,0.35067 -0.35867,0.70667 -0.62934,1.06533 -0.27466,0.35867 -0.648,0.68267 -1.12666,0.97067 -0.47467,0.29067 -1.064,0.524 -1.768,0.70267 -0.70134,0.17866 -1.544,0.26933 -2.528,0.26933 -0.984,0 -1.89467,-0.11333 -2.73867,-0.33867 -0.844,-0.22666 -1.56267,-0.57466 -2.15467,-1.04133 -0.59466,-0.46933 -1.04933,-1.07067 -1.37066,-1.804 -0.31867,-0.73333 -0.456,-1.616 -0.408,-2.64667 h 1.59066 c -0.016,0.85867 0.11734,1.57734 0.39867,2.15467" /><path fill="#102d5d" d="m 324.85961,151.68979 v 1.35867 h -5.83067 v 15.36 h -1.59333 v -15.36 h -5.80533 v -1.35867 z" /><path fill="#102d5d" d="m 326.45201,151.68979 3.79467,14.63467 h 0.0453 l 4.076,-14.63467 h 1.98933 l 4.09734,14.63467 h 0.0453 l 3.816,-14.63467 h 1.59467 l -4.61467,16.71867 h -1.68533 l -4.23867,-14.96267 h -0.048 l -4.212,14.96267 h -1.73333 l -4.636,-16.71867 z" /><path fill="#102d5d" d="m 348.732,162.72953 c 0.24267,0.88267 0.616,1.67067 1.124,2.36533 0.508,0.69467 1.15867,1.25334 1.956,1.67467 0.79467,0.42133 1.748,0.63067 2.856,0.63067 1.10667,0 2.05467,-0.20934 2.84533,-0.63067 0.788,-0.42133 1.436,-0.98 1.944,-1.67467 0.50534,-0.69466 0.88134,-1.48266 1.12267,-2.36533 0.24133,-0.88133 0.36267,-1.77467 0.36267,-2.68 0,-0.92133 -0.12134,-1.82 -0.36267,-2.69333 -0.24133,-0.87467 -0.61733,-1.65734 -1.12267,-2.35334 -0.508,-0.69466 -1.156,-1.252 -1.944,-1.67333 -0.79066,-0.42267 -1.73866,-0.63333 -2.84533,-0.63333 -1.108,0 -2.06133,0.21066 -2.856,0.63333 -0.79733,0.42133 -1.448,0.97867 -1.956,1.67333 -0.508,0.696 -0.88133,1.47867 -1.124,2.35334 -0.244,0.87333 -0.36267,1.772 -0.36267,2.69333 0,0.90533 0.11867,1.79867 0.36267,2.68 m -1.46267,-5.98133 c 0.32667,-1.04667 0.81867,-1.97067 1.47334,-2.77467 0.656,-0.804 1.47866,-1.44533 2.472,-1.92133 0.99066,-0.47467 2.14266,-0.71334 3.45333,-0.71334 1.312,0 2.46,0.23867 3.44267,0.71334 0.98266,0.476 1.80133,1.11733 2.45733,1.92133 0.65467,0.804 1.148,1.728 1.47467,2.77467 0.328,1.044 0.492,2.14666 0.492,3.30133 0,1.15467 -0.164,2.256 -0.492,3.30133 -0.32667,1.04534 -0.82,1.96667 -1.47467,2.764 -0.656,0.79467 -1.47467,1.43067 -2.45733,1.90667 -0.98267,0.47733 -2.13067,0.71467 -3.44267,0.71467 -1.31067,0 -2.46267,-0.23734 -3.45333,-0.71467 -0.99334,-0.476 -1.816,-1.112 -2.472,-1.90667 -0.65467,-0.79733 -1.14667,-1.71866 -1.47334,-2.764 -0.328,-1.04533 -0.49333,-2.14666 -0.49333,-3.30133 0,-1.15467 0.16533,-2.25733 0.49333,-3.30133" /><path fill="#102d5d" d="m 365.04187,151.68979 3.79333,14.63467 h 0.0453 l 4.076,-14.63467 h 1.98933 l 4.09867,14.63467 h 0.0453 l 3.816,-14.63467 h 1.59333 l -4.61466,16.71867 h -1.684 l -4.23867,-14.96267 h -0.048 l -4.212,14.96267 h -1.73333 l -4.636,-16.71867 z" /><path fill="#102d5d" d="m 384.3596,151.68979 h 1.872 l 5.50267,8.476 5.47866,-8.476 h 1.89734 l -6.604,9.83333 v 6.88534 h -1.592 v -6.88534 z" /><path d="m 408.7816,168.40899 h -1.59333 v -16.71866 h 1.59333 z" fill="#102d5d" /><path fill="#102d5d" d="m 414.02747,151.68979 9.73867,14.14133 h 0.048 v -14.14133 h 1.59066 v 16.71867 h -1.77866 l -9.74,-14.14267 h -0.0467 v 14.14267 h -1.59333 v -16.71867 z" /><path fill="#102d5d" d="m 429.90254,165.05953 c 0.27867,0.57867 0.668,1.03867 1.15867,1.38267 0.492,0.34266 1.072,0.58933 1.74533,0.736 0.67067,0.14933 1.388,0.22266 2.15467,0.22266 0.43466,0 0.912,-0.0627 1.42666,-0.18666 0.51467,-0.12534 0.99334,-0.324 1.44134,-0.59734 0.444,-0.27333 0.81333,-0.624 1.11066,-1.05333 0.29734,-0.42933 0.444,-0.948 0.444,-1.55733 0,-0.46934 -0.104,-0.87334 -0.31466,-1.21867 -0.21067,-0.34267 -0.48534,-0.63067 -0.82,-0.86667 -0.336,-0.23333 -0.708,-0.424 -1.11067,-0.572 -0.40667,-0.14933 -0.80533,-0.26933 -1.19467,-0.364 l -3.72533,-0.91333 c -0.48133,-0.124 -0.95467,-0.28 -1.41333,-0.46667 -0.464,-0.188 -0.86534,-0.43733 -1.208,-0.74933 -0.34267,-0.31333 -0.61867,-0.696 -0.83067,-1.148 -0.21067,-0.45333 -0.31733,-1.008 -0.31733,-1.66267 0,-0.40533 0.0787,-0.88133 0.236,-1.428 0.15466,-0.54666 0.448,-1.06133 0.876,-1.54666 0.42933,-0.48267 1.02,-0.892 1.768,-1.22934 0.75066,-0.336 1.712,-0.50266 2.88133,-0.50266 0.82667,0 1.616,0.10933 2.364,0.328 0.74933,0.21866 1.40533,0.54533 1.968,0.98266 0.56133,0.43734 1.00933,0.98134 1.34667,1.628 0.336,0.64667 0.504,1.40134 0.504,2.26 h -1.59334 c -0.0307,-0.64133 -0.17466,-1.19866 -0.43333,-1.67466 -0.25733,-0.476 -0.59333,-0.87467 -1.00667,-1.19334 -0.41466,-0.32133 -0.88933,-0.56266 -1.42933,-0.72666 -0.53733,-0.16267 -1.10533,-0.24534 -1.696,-0.24534 -0.54667,0 -1.076,0.0573 -1.58133,0.17467 -0.50667,0.11867 -0.952,0.304 -1.33467,0.56267 -0.38267,0.25733 -0.68933,0.59733 -0.92667,1.01866 -0.23333,0.42 -0.35066,0.944 -0.35066,1.568 0,0.39067 0.0667,0.73067 0.20133,1.01867 0.132,0.28933 0.31467,0.53467 0.54933,0.73867 0.23334,0.20266 0.50267,0.36666 0.80667,0.49066 0.30533,0.124 0.628,0.22667 0.97467,0.30534 l 4.07333,1.00666 c 0.59333,0.156 1.15067,0.348 1.672,0.57334 0.524,0.22666 0.98533,0.508 1.384,0.84266 0.39467,0.33734 0.708,0.74534 0.93467,1.22934 0.22666,0.484 0.34133,1.07066 0.34133,1.756 0,0.188 -0.0213,0.43866 -0.0587,0.74933 -0.04,0.31333 -0.13333,0.644 -0.28266,0.996 -0.148,0.35067 -0.35867,0.70667 -0.63067,1.06533 -0.27467,0.35867 -0.64667,0.68267 -1.12533,0.97067 -0.47467,0.29067 -1.064,0.524 -1.768,0.70267 -0.70134,0.17866 -1.54534,0.26933 -2.528,0.26933 -0.984,0 -1.896,-0.11333 -2.73867,-0.33867 -0.844,-0.22666 -1.564,-0.57466 -2.15467,-1.04133 -0.59466,-0.46933 -1.04933,-1.07067 -1.37066,-1.804 -0.32,-0.73333 -0.456,-1.616 -0.408,-2.64667 h 1.58933 c -0.0147,0.85867 0.11733,1.57734 0.4,2.15467" /><path fill="#102d5d" d="m 454.9572,151.68979 v 1.35867 h -5.832 v 15.36 h -1.592 v -15.36 h -5.80667 v -1.35867 z" /><path fill="#102d5d" d="m 454.62907,151.68979 h 1.872 l 5.504,8.476 5.47867,-8.476 h 1.896 l -6.60267,9.83333 v 6.88534 h -1.59333 v -6.88534 z" /><path fill="#102d5d" d="m 482.2828,151.68979 v 1.35867 h -5.83067 v 15.36 h -1.59333 v -15.36 h -5.80667 v -1.35867 z" /><path fill="#102d5d" d="m 485.27747,151.68979 v 10.34933 c 0,0.96934 0.10933,1.792 0.33067,2.47067 0.216,0.68 0.536,1.23333 0.95866,1.66267 0.42134,0.42933 0.93734,0.74133 1.54667,0.936 0.608,0.196 1.296,0.292 2.06133,0.292 0.78,0 1.472,-0.096 2.08267,-0.292 0.60667,-0.19467 1.12267,-0.50667 1.54533,-0.936 0.42134,-0.42934 0.74134,-0.98267 0.96,-1.66267 0.21867,-0.67867 0.32667,-1.50133 0.32667,-2.47067 v -10.34933 h 1.59467 v 10.7 c 0,0.85867 -0.12267,1.67467 -0.364,2.44667 -0.24267,0.77333 -0.62534,1.44933 -1.148,2.02533 -0.524,0.57867 -1.19467,1.036 -2.01334,1.37067 -0.82,0.336 -1.816,0.504 -2.984,0.504 -1.156,0 -2.14533,-0.168 -2.964,-0.504 -0.82,-0.33467 -1.49066,-0.792 -2.01466,-1.37067 -0.52267,-0.576 -0.904,-1.252 -1.14534,-2.02533 -0.244,-0.772 -0.36266,-1.588 -0.36266,-2.44667 v -10.7 z" /><path fill="#102d5d" d="m 511.34133,151.68979 v 1.35867 h -5.83067 v 15.36 h -1.59333 v -15.36 H 498.112 v -1.35867 z" /><path fill="#102d5d" d="m 526.4924,167.05046 c 0.59067,0 1.15333,-0.0507 1.684,-0.15333 0.53067,-0.10134 0.99867,-0.284 1.404,-0.54934 0.408,-0.26533 0.72667,-0.62 0.96133,-1.06666 0.23467,-0.444 0.35067,-1.00134 0.35067,-1.67334 0,-1.076 -0.37733,-1.884 -1.136,-2.42266 -0.756,-0.53867 -1.84533,-0.808 -3.264,-0.808 h -5.48 v 6.67333 z m 0,-8.032 c 0.63733,0 1.19467,-0.0733 1.66133,-0.22133 0.468,-0.14934 0.85867,-0.35334 1.17067,-0.61067 0.312,-0.256 0.54667,-0.55733 0.70133,-0.9 0.156,-0.344 0.23334,-0.71067 0.23334,-1.10133 0,-2.092 -1.25467,-3.13734 -3.76667,-3.13734 h -5.48 v 5.97067 z m 0,-7.32933 c 0.7,0 1.376,0.0667 2.02533,0.19866 0.64667,0.13467 1.216,0.36 1.70667,0.68 0.49333,0.32 0.88667,0.74134 1.184,1.264 0.29733,0.524 0.44533,1.17467 0.44533,1.95467 0,0.43733 -0.072,0.86267 -0.212,1.27733 -0.13866,0.41334 -0.34133,0.788 -0.59733,1.12267 -0.256,0.336 -0.56133,0.62133 -0.912,0.856 -0.352,0.23467 -0.74667,0.39733 -1.18267,0.49067 v 0.0467 c 1.076,0.14134 1.93467,0.58267 2.57467,1.324 0.64133,0.74134 0.96133,1.65867 0.96133,2.75067 0,0.26533 -0.0227,0.56667 -0.072,0.90133 -0.0453,0.336 -0.13866,0.67867 -0.28,1.03067 -0.14133,0.35067 -0.344,0.69867 -0.60933,1.04267 -0.26667,0.344 -0.61867,0.644 -1.06267,0.90133 -0.44533,0.25733 -0.99466,0.46667 -1.64,0.63067 -0.648,0.16533 -1.42533,0.248 -2.32933,0.248 h -7.07467 v -16.72 z" /><path fill="#102d5d" d="m 543.982,161.85193 -3.232,-8.57067 -3.348,8.57067 z m -2.27067,-10.16267 6.55467,16.71867 h -1.70667 l -2.03866,-5.19733 h -7.60934 l -2.01333,5.19733 h -1.688 l 6.72,-16.71867 z" /><path fill="#102d5d" d="m 554.77627,167.05046 c 1.20133,0 2.236,-0.128 3.10133,-0.38667 0.86667,-0.25733 1.584,-0.66666 2.14534,-1.22933 0.56,-0.56133 0.97466,-1.288 1.23866,-2.17733 0.26667,-0.88934 0.4,-1.95867 0.4,-3.208 0,-1.248 -0.13333,-2.31867 -0.4,-3.208 -0.264,-0.89067 -0.67866,-1.616 -1.23866,-2.17867 -0.56134,-0.56133 -1.27867,-0.972 -2.14534,-1.228 -0.86533,-0.25867 -1.9,-0.38667 -3.10133,-0.38667 h -3.39467 v 14.00267 z m 0.79733,-15.36133 c 2.544,0.0627 4.45867,0.77733 5.74667,2.14266 1.288,1.36534 1.93333,3.43867 1.93333,6.21734 0,2.77866 -0.64533,4.85066 -1.93333,6.216 -1.288,1.36666 -3.20267,2.08133 -5.74667,2.144 h -5.78533 v -16.72 z" /><path fill="#102d5d" d="m 574.7736,161.85193 -3.232,-8.57067 -3.34933,8.57067 z m -2.27067,-10.16267 6.55467,16.71867 h -1.70667 l -2.03866,-5.19733 h -7.60934 l -2.01466,5.19733 h -1.68667 l 6.72,-16.71867 z" /><path fill="#102d5d" d="m 580.4884,151.68979 3.79333,14.63467 h 0.0453 l 4.076,-14.63467 h 1.98933 l 4.09733,14.63467 h 0.0467 l 3.81467,-14.63467 h 1.59466 l -4.61466,16.71867 h -1.684 l -4.23867,-14.96267 h -0.048 l -4.21333,14.96267 h -1.732 l -4.636,-16.71867 z" /><path fill="#102d5d" d="m 613.2332,155.02633 c -0.32,-0.50667 -0.71067,-0.93333 -1.17067,-1.276 -0.46133,-0.344 -0.968,-0.604 -1.52266,-0.78533 -0.55467,-0.17867 -1.13467,-0.26934 -1.74534,-0.26934 -1.108,0 -2.06,0.212 -2.856,0.63334 -0.79466,0.42133 -1.448,0.97866 -1.956,1.67333 -0.50533,0.696 -0.88266,1.48 -1.12266,2.35333 -0.24134,0.87467 -0.364,1.772 -0.364,2.69334 0,0.90533 0.12266,1.79866 0.364,2.68 0.24,0.88266 0.61733,1.67066 1.12266,2.36666 0.508,0.69467 1.16134,1.252 1.956,1.67334 0.796,0.42266 1.748,0.632 2.856,0.632 0.78,0 1.484,-0.14 2.10934,-0.42134 0.62266,-0.28133 1.16133,-0.66266 1.616,-1.148 0.452,-0.48266 0.81733,-1.04933 1.1,-1.69733 0.27866,-0.648 0.46,-1.34667 0.53733,-2.096 h 1.592 c -0.10933,1.032 -0.35067,1.96 -0.724,2.788 -0.376,0.82667 -0.86,1.52933 -1.45333,2.10667 -0.592,0.57866 -1.292,1.02266 -2.096,1.33466 -0.804,0.312 -1.69867,0.468 -2.68134,0.468 -1.31066,0 -2.46266,-0.23733 -3.45333,-0.71333 -0.99067,-0.476 -1.81333,-1.11333 -2.46933,-1.908 -0.656,-0.79733 -1.148,-1.71867 -1.476,-2.764 -0.328,-1.04533 -0.49334,-2.14667 -0.49334,-3.30133 0,-1.15467 0.16534,-2.256 0.49334,-3.30134 0.328,-1.04533 0.82,-1.97066 1.476,-2.77466 0.656,-0.804 1.47866,-1.44534 2.46933,-1.92 0.99067,-0.476 2.14267,-0.71467 3.45333,-0.71467 0.79867,0 1.57334,0.116 2.33067,0.352 0.756,0.23333 1.44267,0.58 2.06,1.04133 0.61733,0.46 1.132,1.02667 1.54667,1.69734 0.41333,0.672 0.67466,1.444 0.78266,2.31866 h -1.58933 c -0.14267,-0.64 -0.372,-1.21333 -0.692,-1.72133" /><path fill="#102d5d" d="m 629.40253,151.68979 v 1.404 l -11.00667,13.95733 h 11.24134 v 1.35734 h -13.02 v -1.40534 l 11.004,-13.95466 h -10.25334 v -1.35867 z" /><path fill="#102d5d" d="m 629.728,151.68979 h 1.87467 l 5.50133,8.476 5.48133,-8.476 h 1.89334 l -6.60267,9.83333 v 6.88534 h -1.59067 v -6.88534 z" /><path fill="#102d5d" d="m 261.94681,45.200864 c 0.39067,1.430667 0.91067,2.861333 1.82133,4.032 0.78,1.170667 1.82,2.212 3.12134,2.862666 1.30133,0.78 2.86266,1.041334 4.684,1.041334 1.82133,0 3.38266,-0.390667 4.68266,-1.041334 1.30134,-0.650666 2.34134,-1.691999 3.12134,-2.862666 0.78133,-1.170667 1.43066,-2.470667 1.82133,-4.032 0.39067,-1.430667 0.52133,-2.992 0.52133,-4.553333 0,-1.690667 -0.13066,-3.252 -0.52133,-4.813333 -0.39067,-1.56 -0.90933,-2.861334 -1.82133,-4.162667 -0.78,-1.170667 -1.82,-2.212 -3.12134,-2.861333 -1.3,-0.781334 -2.86133,-1.041334 -4.68266,-1.041334 -1.82134,0 -3.38267,0.390667 -4.684,1.041334 -1.30134,0.649333 -2.34134,1.690666 -3.12134,2.861333 -0.78133,1.170667 -1.43066,2.602667 -1.82133,4.162667 -0.39067,1.561333 -0.52133,3.122666 -0.52133,4.813333 0,1.561333 0.26133,3.122666 0.52133,4.553333 m -7.54533,-12.358666 c 0.78133,-2.341334 2.08133,-4.553334 3.64266,-6.244 1.56134,-1.821333 3.512,-3.252 5.85467,-4.162667 2.34133,-1.04 4.94267,-1.561333 7.804,-1.561333 2.86267,0 5.464,0.521333 7.80533,1.561333 2.34267,1.041334 4.16267,2.472 5.724,4.162667 1.56134,1.821333 2.732,3.902666 3.64267,6.244 0.78,2.341333 1.30133,4.944 1.30133,7.805333 0,2.732 -0.39066,5.333333 -1.30133,7.674666 -0.91067,2.342667 -2.08133,4.424 -3.64267,6.114667 -1.56133,1.690666 -3.512,3.122666 -5.724,4.162666 -2.21066,1.041334 -4.812,1.561334 -7.80533,1.561334 -2.86133,0 -5.46267,-0.52 -7.804,-1.561334 -2.34267,-1.04 -4.29333,-2.341333 -5.85467,-4.162666 -1.56133,-1.821334 -2.732,-3.772 -3.64266,-6.114667 -0.91067,-2.341333 -1.30134,-4.942666 -1.30134,-7.674666 0.13067,-2.861333 0.52134,-5.464 1.30134,-7.805333" /><path fill="#102d5d" d="m 310.46894,9.0367312 -5.59333,9.3653328 h 5.20266 l 8.58534,-9.3653328 z m -8.456,40.9773328 c 0.39067,0.910666 1.04133,1.561333 1.82133,2.081333 0.78,0.52 1.692,0.910666 2.60267,1.170666 1.04,0.26 2.08133,0.390667 3.12133,0.390667 0.78,0 1.56134,0 2.34134,-0.130667 0.78133,-0.129333 1.692,-0.389333 2.34133,-0.650666 0.78133,-0.390667 1.30267,-0.78 1.82133,-1.430667 0.52134,-0.650667 0.78134,-1.430666 0.78134,-2.341333 0,-1.04 -0.26,-1.821333 -0.91067,-2.472 -0.65067,-0.650667 -1.56133,-1.170667 -2.60267,-1.561333 -1.04,-0.389334 -2.21066,-0.78 -3.51066,-1.170667 -1.30134,-0.26 -2.732,-0.649333 -4.03334,-1.04 -1.43066,-0.390667 -2.732,-0.781333 -4.16266,-1.301333 -1.30134,-0.52 -2.472,-1.170667 -3.51334,-1.950667 -1.04,-0.781333 -1.95066,-1.821333 -2.60133,-2.992 -0.65067,-1.170666 -0.90933,-2.732 -0.90933,-4.422666 0,-1.952 0.38933,-3.642667 1.3,-5.073334 0.78,-1.432 1.95066,-2.602666 3.252,-3.513333 1.3,-0.910666 2.86133,-1.690666 4.55333,-2.081333 1.69067,-0.390667 3.38267,-0.650667 5.072,-0.650667 1.952,0 3.904,0.26 5.59467,0.650667 1.82133,0.390667 3.38266,1.170667 4.81333,2.081333 1.43067,1.041333 2.472,2.212 3.38267,3.772 0.78,1.561333 1.30133,3.382667 1.30133,5.594667 h -7.936 c -0.13067,-1.170667 -0.26133,-2.081334 -0.65067,-2.732 -0.39066,-0.781334 -0.91066,-1.301334 -1.56133,-1.690667 -0.65067,-0.390667 -1.43067,-0.650667 -2.34,-0.910667 -0.912,-0.130666 -1.82267,-0.261333 -2.86267,-0.261333 -0.65066,0 -1.3,0.130667 -1.952,0.261333 -0.65066,0.129334 -1.3,0.389334 -1.82133,0.78 -0.52,0.390667 -1.04,0.781334 -1.30133,1.301334 -0.38934,0.52 -0.51867,1.170666 -0.51867,1.950666 0,0.781334 0.12933,1.301334 0.38933,1.821334 0.26,0.390666 0.78134,0.910666 1.69067,1.301333 0.78133,0.389333 1.952,0.78 3.38267,1.170667 1.432,0.390666 3.38266,0.910666 5.724,1.430666 0.65066,0.130667 1.69066,0.390667 2.86266,0.78 1.3,0.390667 2.47067,0.912 3.64134,1.821333 1.17066,0.781334 2.34133,1.821334 3.12266,3.253334 0.91067,1.3 1.30134,3.121333 1.30134,5.202666 0,1.692 -0.39067,3.252 -1.04134,4.813333 -0.65066,1.430667 -1.69066,2.732 -2.992,3.772 -1.3,1.041334 -2.992,1.952 -4.944,2.472 -1.95066,0.650667 -4.16266,0.910667 -6.764,0.910667 -2.08,0 -4.032,-0.26 -5.984,-0.78 -1.95066,-0.52 -3.64266,-1.301333 -5.204,-2.341333 -1.43066,-1.041334 -2.73066,-2.472 -3.51066,-4.162667 -0.912,-1.692 -1.30134,-3.642666 -1.30134,-5.985333 h 7.93467 c 0.13067,0.912 0.39067,1.952 0.78,2.862667" /><path fill="#102d5d" d="m 347.15387,38.69633 c 1.952,0 3.252,-0.389333 4.29333,-1.301333 0.90934,-0.78 1.43067,-2.210667 1.43067,-4.032 0,-1.821333 -0.52133,-3.122667 -1.43067,-4.032 -0.912,-0.781333 -2.34133,-1.172 -4.29333,-1.172 h -8.976 V 38.69633 Z m 2.992,-17.041333 c 1.692,0 3.252,0.26 4.55333,0.781333 1.30134,0.52 2.472,1.3 3.512,2.210667 0.91067,0.910667 1.692,2.081333 2.21067,3.252 0.52133,1.301333 0.78133,2.602667 0.78133,4.033333 0,2.210667 -0.52133,4.162667 -1.43066,5.724 -0.91067,1.56 -2.472,2.861333 -4.55334,3.641333 v 0.130667 c 1.04,0.26 1.82134,0.650667 2.47067,1.3 0.652,0.521333 1.172,1.301333 1.692,2.081333 0.39067,0.781333 0.78133,1.692 0.91067,2.602667 0.12933,0.910666 0.26,1.950666 0.38933,2.862666 0,0.649334 0.13067,1.3 0.13067,2.081334 0,0.78 0.13066,1.690666 0.13066,2.470666 0.12934,0.781334 0.26,1.692 0.39067,2.341334 0.12933,0.781333 0.51867,1.432 0.90933,1.951999 h -8.19466 c -0.39067,-1.170666 -0.78,-2.601333 -0.78,-4.293333 -0.13067,-1.690666 -0.26,-3.252 -0.52134,-4.682666 -0.26,-1.950667 -0.90933,-3.382667 -1.82133,-4.293334 -0.91067,-0.910666 -2.34133,-1.299999 -4.42267,-1.299999 h -8.196 v 14.699999 h -8.19466 V 21.654997 Z" /><path fill="#102d5d" d="m 374.9924,45.200864 c 0.39067,1.430667 0.91067,2.861333 1.82133,4.032 0.78,1.170667 1.82,2.212 3.12134,2.862666 1.30266,0.78 2.86266,1.041334 4.684,1.041334 1.82133,0 3.38266,-0.390667 4.68266,-1.041334 1.30134,-0.650666 2.34134,-1.691999 3.12134,-2.862666 0.78133,-1.170667 1.43066,-2.470667 1.82133,-4.032 0.39067,-1.430667 0.52133,-2.992 0.52133,-4.553333 0,-1.690667 -0.13066,-3.252 -0.52133,-4.813333 -0.39067,-1.56 -0.90933,-2.861334 -1.82133,-4.162667 -0.78,-1.170667 -1.82,-2.212 -3.12134,-2.861333 -1.3,-0.781334 -2.86133,-1.041334 -4.68266,-1.041334 -1.82134,0 -3.38134,0.390667 -4.684,1.041334 -1.30134,0.649333 -2.34134,1.690666 -3.12134,2.861333 -0.78133,1.170667 -1.43066,2.602667 -1.82133,4.162667 -0.39067,1.561333 -0.52133,3.122666 -0.52133,4.813333 0,1.561333 0.13066,3.122666 0.52133,4.553333 m -7.54533,-12.358666 c 0.78133,-2.341334 2.08133,-4.553334 3.64266,-6.244 1.56134,-1.821333 3.512,-3.252 5.85467,-4.162667 2.34133,-0.910666 4.94267,-1.561333 7.804,-1.561333 2.86267,0 5.464,0.521333 7.80533,1.561333 2.212,1.041334 4.16267,2.472 5.724,4.162667 1.56134,1.821333 2.732,3.902666 3.64267,6.244 0.78,2.341333 1.30133,4.944 1.30133,7.805333 0,2.732 -0.39066,5.333333 -1.30133,7.674666 -0.91067,2.342667 -2.08133,4.424 -3.64267,6.114667 -1.56133,1.690666 -3.512,3.122666 -5.724,4.162666 -2.34133,1.041334 -4.812,1.561334 -7.80533,1.561334 -2.86133,0 -5.46267,-0.52 -7.804,-1.561334 -2.34267,-1.04 -4.29333,-2.341333 -5.85467,-4.162666 -1.56133,-1.690667 -2.732,-3.772 -3.64266,-6.114667 -0.78,-2.341333 -1.30134,-4.942666 -1.30134,-7.674666 0,-2.861333 0.39067,-5.464 1.30134,-7.805333" /><path fill="#102d5d" d="m 424.29574,52.355797 c 1.17067,0 2.34133,-0.130667 3.512,-0.521333 1.17067,-0.389334 2.08133,-1.04 2.992,-1.950667 0.91067,-0.910667 1.56133,-2.081333 2.08133,-3.512 0.52,-1.432 0.78,-3.252 0.78,-5.204 0,-1.950666 -0.12933,-3.642666 -0.52,-5.073333 -0.38933,-1.561333 -0.91066,-2.861333 -1.82,-3.902666 -0.78133,-1.04 -1.952,-1.950667 -3.384,-2.472 -1.43066,-0.52 -3.12133,-0.910667 -5.072,-0.910667 h -5.85466 V 52.48513 Z m 0.64933,-30.699999 c 2.472,0 4.684,0.389333 6.76534,1.170666 2.08133,0.78 3.90266,1.950667 5.46266,3.512 1.56134,1.561334 2.73334,3.512 3.51334,5.724 0.78,2.210667 1.30133,5.072 1.30133,8.194667 0,2.732 -0.39067,5.204 -1.04133,7.545333 -0.65067,2.341333 -1.82134,4.293333 -3.12267,5.984 -1.43067,1.690666 -3.252,2.992 -5.33333,4.033333 -2.08134,0.910667 -4.68267,1.430666 -7.54534,1.430666 H 408.81574 V 21.655798 Z" /><path fill="#102d5d" d="m 475.67987,21.655264 v 6.894666 h -19.77333 v 8.065334 h 18.212 v 6.373333 h -18.212 v 9.237333 h 20.29333 v 6.894666 H 447.71054 V 21.524597 Z" /><path fill="#102d5d" d="M 489.98973,21.655264 V 37.26593 L 504.6884,21.655264 h 10.27733 l -14.7,14.829333 16.132,22.765333 h -10.408 L 494.6724,42.339263 489.98973,47.152597 V 59.24993 h -8.196 V 21.655264 Z" /><path fill="#102d5d" d="m 261.03667,83.316063 h 9.62667 c 0.78,0 1.43066,-0.130667 2.21066,-0.26 0.78134,-0.26 1.43067,-0.52 2.08134,-1.041333 0.65066,-0.52 1.17066,-1.170667 1.56133,-1.950667 0.38933,-0.78 0.65067,-1.821333 0.65067,-2.992 0,-1.170666 -0.13067,-2.212 -0.52134,-2.992 -0.38933,-0.78 -0.78,-1.430666 -1.43066,-1.952 -0.65067,-0.52 -1.30134,-0.78 -2.08134,-0.909333 -0.78133,-0.130667 -1.56133,-0.261333 -2.47066,-0.261333 H 260.906 Z m -6.636,-17.821333 h 16.52267 c 2.732,0 4.812,0.389333 6.504,1.170667 1.692,0.78 2.992,1.690666 3.90266,2.861333 0.90934,1.170667 1.56134,2.472 1.82134,3.773333 0.38933,1.3 0.52,2.601334 0.52,3.772 0,1.170667 -0.13067,2.472 -0.52,3.772 -0.39067,1.301333 -0.912,2.602667 -1.82134,3.773333 -0.91066,1.170667 -2.21066,2.081334 -3.90266,2.861334 -1.692,0.781333 -3.90267,1.170666 -6.504,1.170666 H 260.906 V 103.0894 h -6.50533 z" /><path fill="#102d5d" d="m 296.03014,82.535529 h 10.79733 c 2.08,0 3.64134,-0.52 4.812,-1.56 1.04134,-1.041333 1.692,-2.472 1.692,-4.553333 0,-1.170667 -0.13066,-2.212 -0.52,-2.862667 -0.39066,-0.78 -0.78133,-1.301333 -1.43066,-1.821333 -0.652,-0.390667 -1.30267,-0.649333 -2.08267,-0.78 -0.78,-0.130667 -1.56133,-0.26 -2.47067,-0.26 h -10.668 z m -6.50533,-17.041333 h 17.952 c 4.16266,0 7.28533,0.910667 9.36666,2.732 2.08134,1.821333 3.12134,4.293333 3.12134,7.414667 0,1.821333 -0.25867,3.253333 -0.78,4.422666 -0.52,1.170667 -1.17067,2.082667 -1.82134,2.862667 -0.64933,0.78 -1.43066,1.301333 -2.08133,1.561333 -0.65067,0.26 -1.16933,0.52 -1.56,0.650667 v 0.129333 c 0.51867,0.129333 1.16933,0.26 1.82133,0.52 0.64934,0.26 1.3,0.781333 1.82,1.301333 0.52134,0.650667 1.04,1.430667 1.43067,2.341333 0.39067,1.041334 0.52133,2.212 0.52133,3.642667 0,2.212 0.13067,4.162667 0.52,5.984 0.38934,1.821338 0.91067,3.121338 1.56,3.902668 h -7.024 c -0.52,-0.78133 -0.78,-1.69067 -0.91066,-2.732 -0.12934,-1.040001 -0.12934,-1.950668 -0.12934,-2.861335 0,-1.692 -0.13066,-3.252 -0.26133,-4.422666 -0.26,-1.301334 -0.64933,-2.212 -1.17067,-3.122667 -0.51866,-0.781333 -1.3,-1.430666 -2.34133,-1.821333 -0.91067,-0.390667 -2.212,-0.52 -3.64267,-0.52 h -9.62666 v 15.480001 h -6.504 V 65.494196 Z" /><path fill="#102d5d" d="m 325.42854,65.494463 h 28.48933 v 4.944 l -21.85333,26.926666 h 22.37467 v 5.724001 h -30.70134 v -5.333334 l 21.85467,-26.537333 h -20.164 z" /><path fill="#102d5d" d="m 359.64214,65.494463 h 27.05867 v 5.724 h -20.424 v 9.886666 h 18.86266 v 5.333333 h -18.86266 v 10.926667 h 20.81333 v 5.724001 h -27.448 z" /><path fill="#102d5d" d="m 389.172,65.494463 h 30.44 v 5.724 H 407.644 V 103.08913 H 401.14 V 71.218463 h -11.83733 z" /><path fill="#102d5d" d="m 420.2632,65.494463 h 6.63467 l 6.764,28.749333 h 0.12933 l 7.54533,-28.749333 h 6.76534 l 7.41333,28.749333 h 0.13067 l 7.02533,-28.749333 h 6.63333 L 458.8992,103.08913 h -6.63467 L 444.7192,74.339796 h -0.13067 l -7.67466,28.749334 h -6.764 z" /><path fill="#102d5d" d="m 479.9728,88.129263 h 11.448 l -5.59333,-16.130666 h -0.13067 z m 2.21067,-22.634666 h 7.02533 l 14.44,37.594663 h -7.02533 l -3.512,-9.886664 h -14.96 l -3.512,9.886664 h -6.76534 z" /><path fill="#102d5d" d="m 513.79573,82.535529 h 10.79733 c 2.08,0 3.64134,-0.52 4.812,-1.56 1.04134,-1.041333 1.692,-2.472 1.692,-4.553333 0,-1.170667 -0.13066,-2.212 -0.52,-2.862667 -0.39066,-0.78 -0.78133,-1.301333 -1.43066,-1.821333 -0.652,-0.390667 -1.30267,-0.649333 -2.08267,-0.78 -0.78,-0.130667 -1.56133,-0.26 -2.47067,-0.26 h -10.668 z M 507.2904,65.494196 h 17.952 c 4.16266,0 7.28533,0.910667 9.23733,2.732 2.08,1.821333 3.12133,4.293333 3.12133,7.414667 0,1.821333 -0.26,3.253333 -0.78,4.422666 -0.52133,1.170667 -1.17066,2.082667 -1.82266,2.862667 -0.64934,0.78 -1.43067,1.301333 -2.08,1.561333 -0.65067,0.26 -1.17067,0.52 -1.56134,0.650667 v 0.129333 c 0.52134,0.129333 1.17067,0.26 1.82134,0.52 0.64933,0.26 1.30133,0.781333 1.82,1.301333 0.52133,0.650667 1.04266,1.430667 1.432,2.341333 0.39066,1.041334 0.52,2.212 0.52,3.642667 0,2.212 0.13066,4.162667 0.52133,5.984 0.38933,1.821338 0.90933,3.121338 1.56,3.902668 h -7.024 c -0.52,-0.78133 -0.78133,-1.69067 -0.91067,-2.732 -0.13066,-1.040001 -0.13066,-1.950668 -0.13066,-2.861335 0,-1.692 -0.13067,-3.252 -0.26,-4.422666 -0.26,-1.301334 -0.65067,-2.212 -1.17067,-3.122667 -0.52,-0.781333 -1.30133,-1.430666 -2.34133,-1.821333 -0.91067,-0.390667 -2.21067,-0.52 -3.64267,-0.52 h -9.62667 v 15.480001 h -6.504 V 65.494196 Z" /><path fill="#102d5d" d="m 543.19413,65.494463 h 28.48933 v 4.944 l -21.85333,26.926666 h 22.37467 v 5.724001 h -30.70134 v -5.333334 l 21.85467,-26.537333 h -20.164 z" /><path fill="#102d5d" d="m 585.08227,88.129263 h 11.448 l -5.59333,-16.130666 h -0.13067 z m 2.34267,-22.634666 h 7.024 l 14.43866,37.594663 h -7.024 l -3.512,-9.886664 h -14.96 l -3.512,9.886664 h -6.76533 z" /><path fill="#102d5d" d="m 612.1408,65.494463 h 6.89467 l 17.172,27.707999 h 0.12933 V 65.494463 h 6.244 v 37.594667 h -6.89467 L 618.6448,75.510463 h -0.12933 v 27.578667 h -6.244 V 65.494463 Z" /><path d="m 650.38693,65.49433 h 6.504 V 103.089 h -6.504 z" fill="#102d5d" /><path fill="#102d5d" d="m 672.76186,88.129263 h 11.44667 l -5.59334,-16.130666 h -0.12933 z m 2.34133,-22.634666 h 7.024 l 14.44,37.594663 h -7.024 l -3.51333,-9.886664 h -15.08933 l -3.51334,9.886664 h -6.764 z" /><path fill="#102d5d" d="m 259.34521,108.5778 v 37.46533 h -4.944 v -37.596 z" /><path fill="#102d5d" d="m 273.00414,108.5778 19.77333,30.44 h 0.13067 v -30.44 h 4.68133 v 37.46533 h -5.46266 l -19.644,-30.05066 v 30.05066 h -4.68134 v -37.596 z" /><path fill="#102d5d" d="m 330.37254,108.5778 v 4.16267 h -19.64267 v 11.968 h 17.30134 v 4.16266 h -17.30134 v 17.172 h -4.94266 v -37.596 z" /><path fill="#102d5d" d="m 339.478,132.90393 c 0.52133,1.82133 1.30133,3.512 2.34267,4.944 1.04,1.43067 2.34133,2.60133 4.032,3.512 1.692,0.91067 3.64266,1.3 5.85466,1.3 2.34134,0 4.29334,-0.38933 5.85334,-1.3 1.69066,-0.91067 2.992,-2.08133 4.03333,-3.512 1.04,-1.432 1.82,-3.12267 2.34133,-4.944 0.52,-1.82133 0.78,-3.64267 0.78,-5.59333 0,-1.952 -0.26,-3.77334 -0.78,-5.59467 -0.52133,-1.82 -1.30133,-3.512 -2.34133,-4.94267 -1.04133,-1.43066 -2.34267,-2.60133 -4.03333,-3.512 -1.69067,-0.91066 -3.64267,-1.30133 -5.85334,-1.30133 -2.212,0 -4.29333,0.39067 -5.85466,1.30133 -1.69067,0.91067 -2.992,2.08134 -4.032,3.512 -1.04134,1.43067 -1.82134,3.12267 -2.34267,4.94267 -0.52,1.82133 -0.78,3.64267 -0.78,5.59467 0,1.95066 0.26,3.772 0.78,5.59333 m -4.552,-13.008 c 0.78,-2.34267 1.82,-4.424 3.38133,-6.244 1.56134,-1.82267 3.38267,-3.25333 5.59334,-4.424 2.21333,-1.04133 4.81466,-1.69067 7.80666,-1.69067 2.992,0 5.59334,0.52 7.804,1.69067 2.21334,1.04133 4.16267,2.60133 5.59467,4.424 1.56133,1.82 2.60133,3.90133 3.38267,6.244 0.78,2.34133 1.17066,4.81333 1.17066,7.41467 0,2.60133 -0.39066,5.07333 -1.17066,7.41466 -0.78134,2.34134 -1.82134,4.42267 -3.38267,6.244 -1.56133,1.82134 -3.38267,3.252 -5.59467,4.29334 -2.21066,1.04 -4.812,1.56 -7.804,1.56 -2.992,0 -5.59333,-0.52 -7.80666,-1.56 -2.21067,-1.04134 -4.16267,-2.472 -5.59334,-4.29334 -1.56133,-1.82133 -2.60133,-3.90266 -3.38133,-6.244 -0.78133,-2.34133 -1.17067,-4.81333 -1.17067,-7.41466 0,-2.60134 0.38934,-4.944 1.17067,-7.41467" /><path fill="#102d5d" d="m 394.50534,125.61939 c 1.04,-0.13067 1.952,-0.52133 2.732,-1.04133 0.78133,-0.52 1.43067,-1.17067 1.952,-2.08134 0.51867,-0.91066 0.64933,-1.95066 0.64933,-3.38133 0,-1.952 -0.52,-3.38267 -1.56133,-4.684 -1.04,-1.17067 -2.732,-1.82133 -5.07333,-1.82133 h -12.35734 v 13.13866 h 10.40667 c 1.16933,0.13067 2.212,0 3.252,-0.12933 m -1.04,-17.04133 c 3.512,0 6.37333,0.91066 8.32533,2.60133 2.08,1.82133 2.992,4.16267 2.992,7.15467 0,2.34133 -0.52133,4.29333 -1.56133,5.984 -1.04133,1.69066 -2.732,2.86133 -4.944,3.512 v 0.13066 c 1.04133,0.26 1.952,0.52 2.60133,1.04134 0.652,0.52 1.172,1.04 1.692,1.82 0.39067,0.65066 0.65067,1.432 0.91067,2.34266 0.12933,0.78 0.38933,1.69067 0.38933,2.60134 0.13067,0.91066 0.13067,1.82133 0.13067,2.732 0,0.91066 0.13067,1.82 0.26,2.732 0.13067,0.91066 0.39067,1.82133 0.652,2.60133 0.25867,0.78 0.64933,1.56133 1.17067,2.21067 h -5.59467 c -0.39067,-0.38934 -0.65067,-0.90934 -0.65067,-1.56 -0.13066,-0.65067 -0.26,-1.43067 -0.26,-2.212 0,-0.78 -0.13066,-1.69067 -0.13066,-2.60134 0,-0.91066 -0.12934,-1.82133 -0.25867,-2.732 -0.13067,-0.91066 -0.26133,-1.82133 -0.52133,-2.60133 -0.26,-0.78133 -0.52134,-1.56133 -1.04,-2.212 -0.39067,-0.65067 -1.04134,-1.04 -1.82134,-1.43067 -0.78,-0.39066 -1.692,-0.52 -2.99333,-0.52 h -12.22667 v 15.86934 h -4.94266 v -37.59467 z" /><path fill="#102d5d" d="m 418.83227,108.5778 11.83733,31.48133 11.83867,-31.48133 h 6.89467 v 37.46533 h -4.684 V 114.8218 h -0.13067 l -11.708,31.22133 h -4.292 l -11.708,-31.22133 h -0.13067 v 31.22133 h -4.68266 v -37.596 z" /><path fill="#102d5d" d="m 476.8504,130.56219 -6.244,-17.56133 h -0.12933 l -6.376,17.56133 z m -3.512,-21.984 14.7,37.59467 h -5.464 l -4.16267,-11.31734 h -15.87066 l -4.16267,11.31734 h -5.07333 l 14.56933,-37.59467 z" /><path fill="#102d5d" d="m 514.31533,113.91113 c -1.95067,-1.30133 -4.16267,-1.95067 -6.764,-1.95067 -2.21067,0 -4.16267,0.39067 -5.724,1.3 -1.56133,0.78134 -2.86267,1.952 -3.90267,3.38267 -1.04,1.43067 -1.82133,2.992 -2.34133,4.81333 -0.52,1.82134 -0.78133,3.772 -0.78133,5.724 0,2.08134 0.26133,4.16267 0.78133,6.11467 0.52,1.95067 1.30133,3.51067 2.34133,4.94267 1.04,1.43066 2.34134,2.60133 4.032,3.38266 1.56134,0.78 3.51334,1.3 5.724,1.3 1.692,0 3.12267,-0.26 4.424,-0.78 1.3,-0.52 2.34134,-1.30133 3.25067,-2.212 0.912,-0.91066 1.692,-2.08133 2.212,-3.38133 0.52133,-1.30133 0.78,-2.732 0.91067,-4.29333 h 4.944 c -0.52134,4.68266 -2.08134,8.456 -4.944,11.05733 -2.732,2.60133 -6.504,3.90267 -11.31734,3.90267 -2.86266,0 -5.464,-0.52134 -7.67466,-1.56134 -2.212,-1.04133 -4.032,-2.34133 -5.464,-4.16266 -1.43067,-1.69067 -2.47067,-3.77334 -3.252,-6.244 -0.78,-2.34134 -1.04,-4.944 -1.04,-7.67467 0,-2.732 0.39066,-5.33467 1.16933,-7.676 0.78,-2.34133 1.952,-4.55333 3.384,-6.244 1.43067,-1.82133 3.38133,-3.252 5.59333,-4.29333 2.21067,-1.04 4.812,-1.56 7.67467,-1.56 1.952,0 3.772,0.26 5.59333,0.78 1.692,0.52 3.25334,1.30133 4.684,2.34133 1.43067,1.04133 2.47067,2.34133 3.38134,3.772 0.91066,1.432 1.56133,3.25333 1.82133,5.33467 h -4.944 c -0.52,-2.86267 -1.82,-4.81334 -3.772,-6.11467" /><path fill="#102d5d" d="m 548.13827,140.44886 c -0.39067,1.17067 -1.04,2.34133 -1.82133,3.252 -0.91067,0.91067 -1.95067,1.692 -3.38134,2.34133 -1.432,0.52134 -3.12266,0.91067 -5.33333,0.91067 -3.51333,0 -6.24533,-0.91067 -8.06667,-2.73067 -1.95066,-1.82266 -2.86266,-4.55333 -2.86266,-8.06666 v -2.34134 h 4.944 v 1.56134 c 0,1.04133 0.13066,2.08133 0.26133,2.992 0.12933,0.91066 0.51867,1.692 0.90933,2.34133 0.39067,0.65067 1.04134,1.17067 1.82267,1.56133 0.77867,0.39067 1.82,0.52 2.99067,0.52 2.212,0 3.90266,-0.64933 4.68266,-1.82 0.91067,-1.172 1.30134,-2.86266 1.30134,-4.944 v -27.448 h 4.944 v 28.228 c 0.26,1.17067 0,2.472 -0.39067,3.64267" /><path fill="#102d5d" d="m 562.18773,108.5778 v 37.46533 h -4.944 v -37.596 z" /><path fill="#102d5d" d="m 152.16614,36.599931 c 12.4,-11.6 23.33333,-24.799999 36,-36.13333243 h -20.13333 c -2.26667,1.73333333 -4.66667,3.46666653 -7.06667,5.06666653 -15.6,10.1333329 -34.66667,16.6666659 -45.73333,31.5999989 -0.8,1.066667 -2.448,3.405334 -3.51334,5.005334 h 35.33334 c 1.46666,-1.733334 3.64666,-4.072 5.11333,-5.538667" /><path fill="#102d5d" d="m 101.09974,41.266597 c 2.13333,-3.866667 3.86667,-6.8 5.06667,-8.133333 10.13333,-12 22.13333,-22.266666 34,-32.53333265 h -37.6 c 2.4,5.99999985 1.46666,13.99999965 -2.13334,17.59999965 C 72.833074,45.266597 69.899741,6.8665979 70.033074,44.066597 c 4.4,-1.733333 9.225333,-1.984 14.157333,-1.984 l 16.556003,0.056 z" /><path fill="#102d5d" d="m 184.83281,144.99966 c -27.86667,2.26667 -28.13333,26.4 -49.6,28.93333 -12.53333,1.46667 -37.466664,-18 -49.999998,-16.26666 -18.666666,2.53333 -31.866665,6.13333 -42.399998,24.13333 -1.2,2.13333 -1.066667,4.66667 0.133333,7.73333 H 147.89948 c 25.73333,0 48.26666,-14.53333 59.73333,-35.73333 -2.93333,-2.8 -6.66667,-5.06667 -10,-6.8 -3.73333,-2.13333 -8.66667,-2.4 -12.8,-2" /><path fill="#102d5d" d="m 194.96628,82.066729 c -6.8,4.8 9.6,13.2 18.13333,17.466666 V 78.466729 c -6.53333,-0.666667 -12.8,-0.133333 -18.13333,3.6" /><path fill="#102d5d" d="m 56.832812,52.733397 c -4.266667,-12.8 -11.6,-21.333333 -22.133333,-20.533333 -11.333333,0.8 0.8,30.799999 0,42.266666 -0.133333,0.933333 -2.133333,2 -2.666666,1.2 -6.133334,-11.333333 -2,-36.933333 -13.6,-42.666666 -2,-1.066666 -5.066667,-0.133333 -8.4,2 C 3.89948,45.533397 0.43281341,57.66673 0.43281341,70.600063 v 2.8 c 17.19999959,23.733333 17.19999959,2.4 25.73333259,19.066666 2.4,4.666667 -5.2,13.733331 11.066666,13.333331 2.4,-0.13333 6.218667,-0.428 9.153334,-0.828 l 0.05467,-24.999997 c 0.056,-12.333333 3.458667,-20.305333 10.392,-27.238666" /><path fill="#102d5d" d="m 91.914278,147.95806 c 16.800002,7.33333 36.652002,25.97467 54.785332,7.57467 2,-2 -0.64667,-5.56 -5.98,-8.89334 -3.468,1.06667 -7.14267,1.31867 -11.00933,1.31867 z" /><path fill="#102d5d" d="m 45.632946,117.40006 c -3.2,-9.86667 -39.999999,19.06667 -45.06666554,51.6 v 13.2 c 0.39999999,2.4 1.06666664,4.93333 1.99999994,7.33333 H 20.432947 c -0.8,-2.53333 -0.933334,-5.2 0,-7.73333 7.199999,-18.26667 28.919999,-28.09467 48.785332,-33.828 l -22.658666,-0.0147 -0.06267,-26.42933 z" /><path fill="#102d5d" d="m 201.50014,0.5999314 c 0.13333,1.3333333 0.8,2.7999999 -0.26667,4.1333332 -6.4,8.5333334 -18.26666,14.1333334 -21.6,24.2666664 -1.86666,5.6 15.33334,1.466666 20.26667,-1.866667 4.132,-2.8 8.66667,-6.266666 13.06667,-10.133333 V 0.46659807 Z" /><path fill="#102d5d" d="m 17.89988,111.93326 c -0.666667,-9.06667 -9.0666664,-14.133333 -17.46666623,-19.6 v 48.66667 C 10.166547,136.33326 18.69988,122.06659 17.89988,111.93326" /><path fill="#102d5d" d="m 150.03334,142.73339 v 0 c 18.66667,4.8 20.8,-8 39.86667,-6.66667 7.73333,0.53334 15.6,1.73334 23.19866,3.6 v -23.46666 c -0.932,0.13333 -1.86533,0.13333 -2.79866,0.26666 -17.6,2.53334 -29.46134,-17.021329 -42.79467,-21.422662 v 15.118662 c 0.13333,13.73334 -6.672,25.77067 -17.472,32.57067" /><path fill="#102d5d" d="m 175.09974,54.466463 c -3.46667,0.266667 -5.46133,-5.222667 -7.59467,-8.556 v 41.574666 c 4.53334,-1.333333 9.328,-3.685333 12.928,-4.885333 8.4,-2.933334 11.46667,-14.133333 19.46667,-18 4.53333,-2.133333 8.93333,-2.133333 13.06667,-2.266667 V 28.999797 c -7.86667,4.133333 -15.46667,8.533333 -23.06667,13.2 -5.46667,3.2 -8.26667,11.733333 -14.8,12.266666" /><path fill="#102d5d" d="M 55.366679,24.733397 C 64.300012,18.46673 78.966678,9.2667307 86.033345,0.60006427 H 68.300012 c -17.066666,0 -32.666666,6.39999983 -44.666666,16.93333273 4.266667,3.333333 9.2,5.733333 14.266667,7.2 5.6,1.6 12.666666,3.333333 17.466666,0" /></svg>
