<svg viewBox="0 0 53 53" xmlns="http://www.w3.org/2000/svg">
<rect x="8" y="34" width="3" height="1" />
<path d="m 4,4 v 7 h 7 V 4 Z m 1,1 h 5 v 5 H 5 Z" />
<rect x="12" y="4" width="1" height="1" />
<path d="m 18,4 c 0,0 0,1 0,1 0,0 1,0 1,0 0,0 0,1 0,1 -0,0 -0,0 -1,0 0,0 0,1 0,1 -0,0 -0,0 -1,0 0,0 0,1 0,1 1,0 1,0 2,0 0,-0 0,-1 0,-1 1,0 2,0 3,0 0,0 0,1 0,1 0,0 1,0 1,0 0,-1 0,-1 0,-2 -0,0 -0,0 -1,0 0,-1 0,-1 0,-2 -1,0 -3,0 -4,0 z m 2,1 c 0,0 1,0 1,0 0,0 0,1 0,1 -0,0 -0,0 -1,0 0,-0 0,-1 0,-1 z" />
<rect x="24" y="4" width="1" height="1" />
<path d="m 27,4 c 0,1 0,1 0,2 -0,0 -0,0 -1,0 0,0 0,1 0,1 -0,0 -0,0 -1,0 0,0 0,1 0,1 -0,0 -0,0 -1,0 0,1 0,2 0,3 -0,0 -0,0 -1,0 0,0 0,1 0,1 -0,0 -0,0 -1,0 0,0 0,1 0,1 0,0 1,0 1,0 0,0 0,1 0,1 1,0 1,0 2,0 0,-0 0,-0 0,-1 0,0 1,0 1,0 0,0 0,1 0,1 0,0 1,0 1,0 0,-0 0,-0 0,-1 1,0 1,0 2,0 0,-1 0,-3 0,-4 0,0 1,0 1,0 0,1 0,1 0,2 0,0 1,0 1,0 0,-0 0,-0 0,-1 0,0 1,0 1,0 0,-0 0,-1 0,-1 -0,0 -0,0 -1,0 0,-0 0,-1 0,-1 -0,0 -1,0 -2,0 0,-0 0,-1 0,-1 -0,0 -0,0 -1,0 0,0 0,1 0,1 -0,0 -0,0 -1,0 0,-0 0,-1 0,-1 0,0 1,0 1,0 0,-0 0,-1 0,-1 0,0 1,0 1,0 0,0 0,1 0,1 0,0 1,0 1,0 0,-1 0,-1 0,-2 0,0 1,0 1,0 0,0 0,1 0,1 0,0 1,0 1,0 0,-0 0,-1 0,-1 0,0 1,0 1,0 0,-0 0,-1 0,-1 -1,0 -3,0 -4,0 0,0 0,1 0,1 -0,0 -0,0 -1,0 0,-0 0,-1 0,-1 -0,0 -0,0 -1,0 z m -2,5 c 1,0 2,0 3,0 0,1 0,2 0,3 -1,0 -2,0 -3,0 0,-1 0,-2 0,-3 z" />
<rect x="34" y="4" width="1" height="1" />
<path d="M 36 4 L 36 5 L 35 5 L 35 7 L 34 7 L 34 6 L 33 6 L 33 7 L 31 7 L 31 8 L 32 8 L 32 9 L 33 9 L 33 8 L 34 8 L 34 11 L 35 11 L 35 10 L 36 10 L 36 9 L 35 9 L 35 8 L 36 8 L 36 9 L 37 9 L 37 8 L 38 8 L 38 4 L 36 4 z " />
<rect x="40" y="4" width="1" height="1" />
<path d="m 42,4 c 0,2 0,5 0,7 2,0 5,0 7,0 0,-2 0,-5 0,-7 -2,0 -5,0 -7,0 z m 1,1 c 2,0 3,0 5,0 0,2 0,3 0,5 -2,0 -3,0 -5,0 0,-2 0,-3 0,-5 z" />
<rect x="13" y="5" width="1" height="1" />
<rect x="15" y="5" width="1" height="1" />
<rect x="25" y="5" width="1" height="1" />
<path d="m 39,5 c 0,1 0,2 0,3 -0,0 -0,0 -1,0 0,0 0,1 0,1 1,0 2,0 3,0 0,-1 0,-1 0,-2 -0,0 -0,0 -1,0 0,-1 0,-1 0,-2 -0,0 -0,0 -1,0 z" />
<rect x="6" y="6" width="3" height="3" />
<rect x="14" y="6" width="1" height="1" />
<rect x="16" y="6" width="1" height="1" />
<rect x="44" y="6" width="3" height="3" />
<path d="m 13,7 c 0,1 0,2 0,3 0,0 1,0 1,0 0,-0 0,-1 0,-1 0,0 1,0 1,0 0,-0 0,-1 0,-1 -0,0 -0,0 -1,0 0,-0 0,-1 0,-1 -0,0 -0,0 -1,0 z" />
<rect x="15" y="7" width="1" height="1" />
<path d="m 19,8 c 0,0 0,1 0,1 -1,0 -2,0 -3,0 0,1 0,1 0,2 0,0 1,0 1,0 0,-0 0,-0 0,-1 0,0 1,0 1,0 0,0 0,1 0,1 0,0 1,0 1,0 0,-0 0,-0 0,-1 0,0 1,0 1,0 0,0 0,1 0,1 0,0 1,0 1,0 0,-0 0,-1 0,-2 -0,0 -0,0 -1,0 0,-0 0,-1 0,-1 -0,0 -0,0 -1,0 z" />
<path d="m 12,10 v 2 h 2 v 2 h -1 v 1 h 2 v -1 h 1 v -3 h -1 v -1 h -1 v 1 h -1 v -1 z" />
<rect x="22" y="10" width="1" height="1" />
<rect x="26" y="10" width="1" height="1" />
<path d="m 32,10 c 0,0 0,1 0,1 -0,0 -0,0 -1,0 0,0 0,1 0,1 0,0 1,0 1,0 0,0 0,1 0,1 0,0 1,0 1,0 0,-0 0,-0 0,-1 0,0 1,0 1,0 0,-0 0,-0 0,-1 -0,0 -0,0 -1,0 0,-0 0,-0 0,-1 -0,0 -0,0 -1,0 z" />
<rect x="36" y="10" width="1" height="1" />
<path d="m 38,10 c 0,0 0,1 0,1 -0,0 -0,0 -1,0 0,0 0,1 0,1 1,0 1,0 2,0 0,-0 0,-1 0,-2 -0,0 -0,0 -1,0 z" />
<rect x="40" y="10" width="1" height="1" />
<rect x="17" y="11" width="1" height="1" />
<path d="m 19,11 c 0,0 0,1 0,1 -0,0 -0,0 -1,0 0,1 0,1 0,2 0,0 1,0 1,0 0,1 0,1 0,2 -0,0 -0,0 -1,0 0,0 0,1 0,1 0,0 1,0 1,0 0,0 0,1 0,1 0,0 1,0 1,0 0,-1 0,-2 0,-3 0,0 1,0 1,0 0,1 0,3 0,4 -0,0 -0,0 -1,0 0,0 0,1 0,1 1,0 1,0 2,0 0,0 0,1 0,1 0,0 1,0 1,0 0,-0 0,-1 0,-2 -0,0 -0,0 -1,0 0,-0 0,-1 0,-2 0,0 1,0 1,0 0,-0 0,-0 0,-1 0,0 1,0 1,0 0,-0 0,-0 0,-1 -0,0 -0,0 -1,0 0,-0 0,-0 0,-1 -0,0 -0,0 -1,0 0,-0 0,-0 0,-1 -0,0 -0,0 -1,0 0,0 0,1 0,1 -0,0 -0,0 -1,0 0,-0 0,-0 0,-1 0,0 1,0 1,0 0,-0 0,-0 0,-1 -0,0 -0,0 -1,0 0,-0 0,-0 0,-1 -0,0 -0,0 -1,0 z" />
<rect x="35" y="11" width="1" height="1" />
<path d="m 4,12 c 0,0 0,1 0,1 0,0 1,0 1,0 0,0 0,1 0,1 0,0 1,0 1,0 0,0 0,1 0,1 -0,0 -1,0 -1,0 0,-0 0,-0 0,-1 -0,0 -1,0 -1,0 0,1 0,1 0,2 0,0 1,0 1,0 0,0 0,1 0,1 0,0 1,0 1,0 0,-0 0,-0 0,-1 0,0 1,0 1,0 0,1 0,1 0,2 0,0 1,0 1,0 0,-0 0,-1 0,-2 1,0 1,0 2,0 0,-0 0,-0 0,-1 0,0 1,0 1,0 0,-0 0,-0 0,-1 -0,0 -1,0 -2,0 0,0 0,1 0,1 -1,0 -1,0 -2,0 0,-0 0,-0 0,-1 0,0 1,0 1,0 0,-0 0,-0 0,-1 0,0 1,0 1,0 0,-0 0,-0 0,-1 -1,0 -1,0 -2,0 0,0 0,1 0,1 -0,0 -1,0 -1,0 0,-0 0,-0 0,-1 -1,0 -1,0 -2,0 z" />
<rect x="10" y="12" width="1" height="1" />
<path d="m 30,12 c 0,0 0,1 0,1 -0,0 -0,0 -1,0 0,0 0,1 0,1 -0,0 -0,0 -1,0 0,0 0,1 0,1 -1,0 -2,0 -3,0 0,0 0,1 0,1 -0,0 -0,0 -1,0 0,0 0,1 0,1 0,0 1,0 1,0 0,0 0,1 0,1 1,0 1,0 2,0 0,-0 0,-0 0,-1 -0,0 -0,0 -1,0 0,-0 0,-0 0,-1 1,0 1,0 2,0 0,0 0,1 0,1 1,0 1,0 2,0 0,0 0,1 0,1 -1,0 -2,0 -3,0 0,0 0,1 0,1 0,0 1,0 1,0 0,1 0,1 0,2 0,0 1,0 1,0 0,-0 0,-1 0,-2 0,0 1,0 1,0 0,1 0,1 0,2 0,0 1,0 1,0 0,-1 0,-2 0,-3 0,0 1,0 1,0 0,0 0,1 0,1 0,0 1,0 1,0 0,-0 0,-0 0,-1 1,0 1,0 2,0 0,-0 0,-0 0,-1 -0,0 -1,0 -2,0 0,-0 0,-0 0,-1 -0,0 -0,0 -1,0 0,0 0,1 0,1 -0,0 -0,0 -1,0 0,-0 0,-0 0,-1 -0,0 -0,0 -1,0 0,-0 0,-1 0,-2 0,0 1,0 1,0 0,-0 0,-1 0,-2 -0,0 -0,0 -1,0 z" />
<path d="m 34,12 c 0,0 0,1 0,1 -0,0 -0,0 -1,0 0,0 0,1 0,1 -0,0 -0,0 -1,0 0,0 0,1 0,1 1,0 1,0 2,0 0,-0 0,-0 0,-1 0,0 1,0 1,0 0,-0 0,-1 0,-2 -0,0 -0,0 -1,0 z" />
<path d="m 42,12 c 0,0 0,1 0,1 -2,0 -4,0 -6,0 0,0 0,1 0,1 -0,0 -0,0 -1,0 0,1 0,1 0,2 0,0 1,0 1,0 0,1 0,1 0,2 0,0 1,0 1,0 0,0 0,1 0,1 0,0 1,0 1,0 0,-0 0,-1 0,-2 -0,0 -0,0 -1,0 0,-1 0,-2 0,-3 0,0 1,0 1,0 0,1 0,1 0,2 0,0 1,0 1,0 0,-0 0,-1 0,-2 1,0 3,0 4,0 0,-0 0,-1 0,-2 -0,0 -0,0 -1,0 z" />
<rect x="48" y="12" width="1" height="1" />
<path d="m 45,13 c 0,0 0,1 0,1 0,0 1,0 1,0 0,1 0,1 0,2 0,0 1,0 1,0 0,-0 0,-0 0,-1 1,0 1,0 2,0 0,-0 0,-0 0,-1 -0,0 -0,0 -1,0 0,-0 0,-0 0,-1 -1,0 -2,0 -3,0 z" />
<rect x="43" y="14" width="1" height="1" />
<path d="m 11,15 c 0,0 0,1 0,1 -0,0 -0,0 -1,0 0,0 0,1 0,1 1,0 1,0 2,0 0,-0 0,-0 0,-1 0,0 1,0 1,0 0,-0 0,-0 0,-1 -0,0 -1,0 -2,0 z" />
<rect x="15" y="15" width="1" height="1" />
<rect x="17" y="15" width="1" height="1" />
<rect x="40" y="15" width="1" height="1" />
<rect x="13" y="16" width="2" height="1" />
<path d="m 16,16 c 0,0 0,1 0,1 -0,0 -0,0 -1,0 0,0 0,1 0,1 -0,0 -0,0 -1,0 0,0 0,1 0,1 0,0 1,0 1,0 0,0 0,1 0,1 0,0 1,0 1,0 0,-0 0,-0 0,-1 0,0 1,0 1,0 0,0 0,1 0,1 0,0 1,0 1,0 0,0 0,1 0,1 0,0 1,0 1,0 0,-0 0,-1 0,-2 -0,0 -0,0 -1,0 0,-0 0,-1 0,-2 -0,0 -0,0 -1,0 0,-0 0,-0 0,-1 -0,0 -0,0 -1,0 z" />
<path d="m 39,16 c 0,1 0,2 0,3 -0,0 -0,0 -1,0 0,0 0,1 0,1 -0,0 -1,0 -2,0 0,-0 0,-0 0,-1 -0,0 -0,0 -1,0 0,1 0,1 0,2 -0,0 -0,0 -1,0 0,0 0,1 0,1 1,0 1,0 2,0 0,-0 0,-0 0,-1 0,0 1,0 1,0 0,1 0,2 0,3 0,0 1,0 1,0 0,-0 0,-1 0,-2 0,0 1,0 1,0 0,-0 0,-1 0,-2 1,0 1,0 2,0 0,-0 0,-0 0,-1 -0,0 -0,0 -1,0 0,-0 0,-0 0,-1 0,0 1,0 1,0 0,-0 0,-0 0,-1 -0,0 -0,0 -1,0 0,-0 0,-0 0,-1 -0,0 -0,0 -1,0 z" />
<path d="m 44,16 c 0,1 0,1 0,2 -0,0 -0,0 -1,0 0,-0 0,-0 0,-1 -0,0 -0,0 -1,0 0,0 0,1 0,1 -0,0 -0,0 -1,0 0,0 0,1 0,1 1,0 1,0 2,0 0,0 0,1 0,1 0,0 1,0 1,0 0,-0 0,-0 0,-1 0,0 1,0 1,0 0,-1 0,-2 0,-3 -0,0 -0,0 -1,0 z" />
<rect x="48" y="16" width="1" height="1" />
<rect x="4" y="17" width="1" height="3" />
<rect x="9" y="17" width="1" height="1" />
<rect x="23" y="17" width="1" height="1" />
<path d="M 46 17 L 46 18 L 46 19 L 46 20 L 47 20 L 47 21 L 46 21 L 46 22 L 45 22 L 45 23 L 42 23 L 42 24 L 40 24 L 40 23 L 39 23 L 39 24 L 38 24 L 38 26 L 35 26 L 35 27 L 36 27 L 36 28 L 35 28 L 35 29 L 37 29 L 37 30 L 38 30 L 38 29 L 39 29 L 39 28 L 40 28 L 40 30 L 39 30 L 39 33 L 38 33 L 38 34 L 40 34 L 40 33 L 41 33 L 41 32 L 42 32 L 42 30 L 41 30 L 41 29 L 42 29 L 42 30 L 44 30 L 44 29 L 45 29 L 45 30 L 44 30 L 44 31 L 43 31 L 43 32 L 42 32 L 42 33 L 41 33 L 41 34 L 40 34 L 40 35 L 41 35 L 41 36 L 42 36 L 42 35 L 43 35 L 43 34 L 45 34 L 45 32 L 46 32 L 46 33 L 47 33 L 47 30 L 46 30 L 46 28 L 47 28 L 47 27 L 46 27 L 46 26 L 45 26 L 45 24 L 49 24 L 49 21 L 48 21 L 48 19 L 47 19 L 47 18 L 47 17 L 46 17 z M 47 22 L 48 22 L 48 23 L 47 23 L 47 22 z M 41 25 L 44 25 L 44 28 L 41 28 L 41 25 z M 39 26 L 40 26 L 40 27 L 39 27 L 39 26 z " />
<path d="m 6,18 c 0,1 0,1 0,2 1,0 2,0 3,0 0,0 0,1 0,1 1,0 1,0 2,0 0,-0 0,-0 0,-1 -0,0 -0,0 -1,0 0,-0 0,-0 0,-1 -0,0 -1,0 -1,0 0,-0 0,-0 0,-1 -0,0 -1,0 -1,0 0,0 0,1 0,1 -0,0 -1,0 -1,0 0,-0 0,-0 0,-1 -0,0 -1,0 -1,0 z" />
<rect x="10" y="18" width="1" height="1" />
<rect x="12" y="18" width="1" height="1" />
<path d="m 24,18 c 0,1 0,1 0,2 0,0 1,0 1,0 0,1 0,1 0,2 0,0 1,0 1,0 0,-0 0,-0 0,-1 0,0 1,0 1,0 0,-0 0,-1 0,-2 -0,0 -1,0 -2,0 0,-0 0,-0 0,-1 -0,0 -0,0 -1,0 z" />
<path d="m 12,20 c 0,0 0,1 0,1 1,0 1,0 2,0 0,0 0,1 0,1 -0,0 -0,0 -1,0 0,0 0,1 0,1 0,0 1,0 1,0 0,0 0,1 0,1 0,0 1,0 1,0 0,0 0,1 0,1 1,0 1,0 2,0 0,-0 0,-0 0,-1 0,0 1,0 1,0 0,-0 0,-0 0,-1 -0,0 -0,0 -1,0 0,-0 0,-0 0,-1 0,0 1,0 1,0 0,-0 0,-0 0,-1 -0,0 -0,0 -1,0 0,-0 0,-0 0,-1 -0,0 -0,0 -1,0 0,0 0,1 0,1 -0,0 -0,0 -1,0 0,-0 0,-0 0,-1 -1,0 -2,0 -3,0 z m 3,2 c 0,0 1,0 1,0 0,0 0,1 0,1 -0,0 -0,0 -1,0 0,-0 0,-0 0,-1 z" />
<path d="m 41,20 c 0,0 0,1 0,1 -0,0 -0,0 -1,0 0,0 0,1 0,1 1,0 1,0 2,0 0,-0 0,-1 0,-2 -0,0 -0,0 -1,0 z" />
<rect x="6" y="21" width="2" height="1" />
<rect x="20" y="21" width="1" height="2" />
<path d="M 29 21 L 29 22 L 28 22 L 28 23 L 27 23 L 27 24 L 26 24 L 26 23 L 24 23 L 24 30 L 25 30 L 25 31 L 24 31 L 24 33 L 23 33 L 23 34 L 22 34 L 22 35 L 23 35 L 23 36 L 20 36 L 20 37 L 20 38 L 21 38 L 21 37 L 23 37 L 23 38 L 24 38 L 24 39 L 25 39 L 25 40 L 24 40 L 24 39 L 23 39 L 23 40 L 22 40 L 22 41 L 24 41 L 24 43 L 23 43 L 23 44 L 24 44 L 24 45 L 25 45 L 25 48 L 27 48 L 27 47 L 26 47 L 26 46 L 27 46 L 27 45 L 29 45 L 29 48 L 28 48 L 28 49 L 30 49 L 30 48 L 32 48 L 32 49 L 36 49 L 36 48 L 33 48 L 33 47 L 30 47 L 30 44 L 31 44 L 31 42 L 32 42 L 32 41 L 31 41 L 31 39 L 30 39 L 30 38 L 31 38 L 31 36 L 30 36 L 30 37 L 27 37 L 27 38 L 29 38 L 29 39 L 28 39 L 28 40 L 27 40 L 27 39 L 26 39 L 26 38 L 25 38 L 25 37 L 27 37 L 27 36 L 25 36 L 25 35 L 27 35 L 27 34 L 25 34 L 25 32 L 26 32 L 26 31 L 27 31 L 27 30 L 29 30 L 29 31 L 30 31 L 30 32 L 29 32 L 29 33 L 28 33 L 28 32 L 29 32 L 29 31 L 27 31 L 27 34 L 29 34 L 29 35 L 30 35 L 30 33 L 31 33 L 31 34 L 33 34 L 33 33 L 32 33 L 32 31 L 31 31 L 31 27 L 29 27 L 29 26 L 32 26 L 32 27 L 33 27 L 33 28 L 35 28 L 35 27 L 34 27 L 34 26 L 35 26 L 35 24 L 34 24 L 34 23 L 33 23 L 33 22 L 33 21 L 32 21 L 31 21 L 31 22 L 32 22 L 32 23 L 30 23 L 30 21 L 29 21 z M 23 39 L 23 38 L 22 38 L 22 39 L 23 39 z M 29 24 L 30 24 L 30 25 L 29 25 L 29 24 z M 31 24 L 32 24 L 32 25 L 31 25 L 31 24 z M 25 25 L 28 25 L 28 28 L 25 28 L 25 25 z M 29 40 L 30 40 L 30 43 L 29 43 L 29 40 z M 25 41 L 28 41 L 28 44 L 25 44 L 25 41 z " />
<rect x="43" y="21" width="1" height="1" />
<rect x="4" y="22" width="2" height="1" />
<path d="m 9,22 c 0,1 0,1 0,2 -0,0 -1,0 -1,0 0,0 0,1 0,1 -0,0 -1,0 -1,0 0,1 0,1 0,2 0,0 1,0 1,0 0,1 0,1 0,2 -1,0 -1,0 -2,0 0,-0 0,-0 0,-1 0,0 1,0 1,0 0,-0 0,-0 0,-1 -1,0 -1,0 -2,0 0,1 0,2 0,3 1,0 3,0 4,0 0,1 0,1 0,2 0,0 1,0 1,0 0,-0 0,-0 0,-1 0,0 1,0 1,0 0,-0 0,-0 0,-1 -0,0 -0,0 -1,0 0,-0 0,-0 0,-1 1,0 2,0 3,0 0,0 0,1 0,1 1,0 1,0 2,0 0,-1 0,-2 0,-3 -0,0 -0,0 -1,0 0,0 0,1 0,1 -0,0 -0,0 -1,0 0,-0 0,-1 0,-2 1,0 1,0 2,0 0,-0 0,-0 0,-1 -0,0 -0,0 -1,0 0,-0 0,-0 0,-1 -0,0 -1,0 -2,0 0,-0 0,-0 0,-1 -0,0 -0,0 -1,0 0,0 0,1 0,1 -0,0 -0,0 -1,0 0,-0 0,-0 0,-1 0,0 1,0 1,0 0,-0 0,-0 0,-1 -0,0 -1,0 -2,0 z m 0,3 c 1,0 2,0 3,0 0,1 0,2 0,3 -1,0 -2,0 -3,0 0,-1 0,-2 0,-3 z" />
<path d="m 22,22 c 0,1 0,2 0,3 0,0 1,0 1,0 0,-0 0,-1 0,-2 0,0 1,0 1,0 0,-0 0,-0 0,-1 -0,0 -1,0 -2,0 z" />
<rect x="26" y="22" width="1" height="1" />
<rect x="7" y="23" width="1" height="1" />
<path d="m 4,24 c 0,1 0,1 0,2 0,0 1,0 1,0 0,-0 0,-0 0,-1 1,0 1,0 2,0 0,-0 0,-0 0,-1 -1,0 -2,0 -3,0 z" />
<path d="m 19,24 c 0,1 0,1 0,2 1,0 1,0 2,0 0,-0 0,-0 0,-1 -0,0 -0,0 -1,0 0,-0 0,-0 0,-1 -0,0 -0,0 -1,0 z" />
<rect x="47" y="25" width="1" height="1" />
<rect x="10" y="26" width="1" height="1" />
<path d="m 16,26 c 0,1 0,3 0,4 -0,0 -0,0 -1,0 0,0 0,1 0,1 0,0 1,0 1,0 0,0 0,1 0,1 0,0 1,0 1,0 0,-0 0,-1 0,-2 1,0 1,0 2,0 0,0 0,1 0,1 -0,0 -0,0 -1,0 0,0 0,1 0,1 -0,0 -0,0 -1,0 0,0 0,1 0,1 0,0 1,0 1,0 0,0 0,1 0,1 -0,0 -0,0 -1,0 0,-0 0,-0 0,-1 -0,0 -0,0 -1,0 0,0 0,1 0,1 -0,0 -0,0 -1,0 0,0 0,1 0,1 1,0 2,0 3,0 0,0 0,1 0,1 1,0 1,0 2,0 0,-0 0,-0 0,-1 -0,0 -0,0 -1,0 0,-0 0,-0 0,-1 1,0 2,0 3,0 0,-0 0,-0 0,-1 -0,0 -0,0 -1,0 0,-0 0,-0 0,-1 -0,0 -0,0 -1,0 0,-0 0,-1 0,-2 0,0 1,0 1,0 0,1 0,1 0,2 0,0 1,0 1,0 0,0 0,1 0,1 0,0 1,0 1,0 0,-0 0,-1 0,-2 -0,0 -0,0 -1,0 0,-0 0,-1 0,-2 -0,0 -0,0 -1,0 0,-0 0,-0 0,-1 -0,0 -1,0 -2,0 0,0 0,1 0,1 -0,0 -1,0 -2,0 0,-0 0,-1 0,-2 0,0 1,0 1,0 0,-0 0,-0 0,-1 -0,0 -1,0 -2,0 z" />
<rect x="21" y="26" width="2" height="1" />
<rect x="26" y="26" width="1" height="1" />
<rect x="42" y="26" width="1" height="1" />
<rect x="48" y="26" width="1" height="1" />
<rect x="18" y="27" width="1" height="1" />
<rect x="22" y="28" width="1" height="1" />
<rect x="32" y="28" width="1" height="1" />
<rect x="34" y="29" width="1" height="1" />
<rect x="23" y="30" width="1" height="1" />
<rect x="32" y="30" width="1" height="1" />
<rect x="35" y="30" width="1" height="1" />
<path d="m 6,31 c 0,0 0,1 0,1 0,0 1,0 1,0 0,0 0,1 0,1 1,0 1,0 2,0 0,-0 0,-0 0,-1 -0,0 -1,0 -1,0 0,-0 0,-0 0,-1 -1,0 -1,0 -2,0 z" />
<rect x="11" y="31" width="1" height="1" />
<rect x="14" y="31" width="1" height="1" />
<path d="m 33,31 c 0,0 0,1 0,1 0,0 1,0 1,0 0,1 0,1 0,2 0,0 1,0 1,0 0,-1 0,-2 0,-3 -0,0 -1,0 -2,0 z" />
<rect x="37" y="31" width="1" height="1" />
<rect x="48" y="31" width="1" height="1" />
<path d="m 5,32 c 0,1 0,1 0,2 1,0 1,0 2,0 0,-0 0,-0 0,-1 -0,0 -1,0 -1,0 0,-0 0,-0 0,-1 -0,0 -1,0 -1,0 z" />
<rect x="10" y="32" width="1" height="1" />
<path d="m 13,32 c 0,0 0,1 0,1 -0,0 -1,0 -2,0 0,0 0,1 0,1 1,0 2,0 3,0 0,-0 0,-1 0,-2 -0,0 -0,0 -1,0 z" />
<rect x="36" y="32" width="1" height="1" />
<rect x="48" y="33" width="1" height="4" />
<path d="m 33,34 c 0,0 0,1 0,1 -0,0 -1,0 -2,0 0,0 0,1 0,1 0,0 1,0 1,0 0,0 0,1 0,1 0,0 1,0 1,0 0,0 0,1 0,1 -0,0 -0,0 -1,0 0,0 0,1 0,1 1,0 1,0 2,0 0,-0 0,-0 0,-1 1,0 1,0 2,0 0,-0 0,-0 0,-1 -0,0 -1,0 -2,0 0,-1 0,-2 0,-3 -0,0 -0,0 -1,0 z" />
<rect x="36" y="34" width="1" height="1" />
<rect x="4" y="35" width="1" height="1" />
<path d="m 11,35 c 0,0 0,1 0,1 -1,0 -2,0 -3,0 0,0 0,1 0,1 -0,0 -1,0 -1,0 0,0 0,1 0,1 0,0 1,0 1,0 0,0 0,1 0,1 -1,0 -2,0 -3,0 0,0 0,1 0,1 1,0 1,0 2,0 0,0 0,1 0,1 1,0 1,0 2,0 0,-1 0,-2 0,-3 0,0 1,0 1,0 0,-0 0,-0 0,-1 1,0 2,0 3,0 0,-0 0,-0 0,-1 0,0 1,0 1,0 0,0 0,1 0,1 0,0 1,0 1,0 0,-0 0,-1 0,-2 -1,0 -3,0 -4,0 z" />
<rect x="27" y="35" width="2" height="1" />
<rect x="39" y="35" width="1" height="1" />
<rect x="43" y="35" width="1" height="1" />
<rect x="46" y="35" width="1" height="1" />
<path d="m 16,36 c 0,0 0,1 0,1 0,0 1,0 1,0 0,1 0,2 0,3 0,0 1,0 1,0 0,-0 0,-0 0,-1 0,0 1,0 1,0 0,-0 0,-1 0,-2 -0,0 -0,0 -1,0 0,-0 0,-0 0,-1 -0,0 -1,0 -2,0 z" />
<path d="m 37,36 c 0,1 0,1 0,2 0,0 1,0 1,0 0,1 0,1 0,2 0,0 1,0 1,0 0,-1 0,-3 0,-4 -0,0 -1,0 -2,0 z m 2,4 c 0,0 0,1 0,1 0,0 1,0 1,0 0,1 0,2 0,3 -0,0 -0,0 -1,0 0,-0 0,-0 0,-1 -0,0 -0,0 -1,0 0,0 0,1 0,1 -0,0 -1,0 -2,0 0,-1 0,-2 0,-3 1,0 1,0 2,0 0,-0 0,-0 0,-1 -0,0 -0,0 -1,0 0,-0 0,-1 0,-2 -0,0 -0,0 -1,0 0,0 0,1 0,1 -0,0 -1,0 -2,0 0,0 0,1 0,1 -0,0 -1,0 -2,0 0,0 0,1 0,1 0,0 1,0 1,0 0,0 0,1 0,1 1,0 1,0 2,0 0,0 0,1 0,1 -0,0 -0,0 -1,0 0,0 0,1 0,1 0,0 1,0 1,0 0,0 0,1 0,1 -0,0 -0,0 -1,0 0,0 0,1 0,1 1,0 1,0 2,0 0,-0 0,-0 0,-1 0,0 1,0 1,0 0,0 0,1 0,1 -0,0 -0,0 -1,0 0,0 0,1 0,1 1,0 1,0 2,0 0,-0 0,-0 0,-1 1,0 1,0 2,0 0,-0 0,-0 0,-1 0,0 1,0 1,0 0,0 0,1 0,1 -0,0 -0,0 -1,0 0,0 0,1 0,1 1,0 1,0 2,0 0,-0 0,-0 0,-1 1,0 1,0 2,0 0,-0 0,-0 0,-1 0,0 1,0 1,0 0,0 0,1 0,1 1,0 1,0 2,0 0,-0 0,-0 0,-1 -0,0 -0,0 -1,0 0,-0 0,-0 0,-1 0,0 1,0 1,0 0,-0 0,-0 0,-1 -0,0 -0,0 -1,0 0,-0 0,-1 0,-2 -0,0 -0,0 -1,0 0,-0 0,-0 0,-1 -0,0 -0,0 -1,0 0,-0 0,-0 0,-1 -0,0 -0,0 -1,0 0,-0 0,-0 0,-1 0,0 1,0 1,0 0,0 0,1 0,1 0,0 1,0 1,0 0,-0 0,-0 0,-1 0,0 1,0 1,0 0,-0 0,-0 0,-1 -1,0 -2,0 -3,0 0,-0 0,-0 0,-1 -0,0 -0,0 -1,0 0,0 0,1 0,1 -0,0 -0,0 -1,0 0,0 0,1 0,1 -0,0 -0,0 -1,0 0,0 0,1 0,1 1,0 1,0 2,0 0,0 0,1 0,1 -1,0 -2,0 -3,0 z m 2,1 c 1,0 2,0 3,0 0,1 0,2 0,3 -1,0 -2,0 -3,0 0,-1 0,-2 0,-3 z" />
<rect x="40" y="36" width="1" height="1" />
<rect x="4" y="37" width="2" height="1" />
<path d="m 15,37 c 0,0 0,1 0,1 -0,0 -0,0 -1,0 0,1 0,1 0,2 0,0 1,0 1,0 0,-0 0,-0 0,-1 0,0 1,0 1,0 0,-0 0,-1 0,-2 -0,0 -0,0 -1,0 z" />
<rect x="10" y="38" width="1" height="1" />
<rect x="12" y="38" width="1" height="1" />
<rect x="47" y="38" width="2" height="1" />
<rect x="20" y="39" width="1" height="1" />
<rect x="46" y="39" width="1" height="1" />
<rect x="4" y="40" width="1" height="1" />
<rect x="10" y="40" width="1" height="1" />
<path d="m 15,40 c 0,1 0,1 0,2 1,0 1,0 2,0 0,-0 0,-0 0,-1 -0,0 -0,0 -1,0 0,-0 0,-0 0,-1 -0,0 -0,0 -1,0 z" />
<rect x="18" y="40" width="1" height="1" />
<rect x="12" y="41" width="1" height="1" />
<rect x="19" y="41" width="1" height="1" />
<rect x="47" y="41" width="1" height="1" />
<path d="m 4,42 v 7 h 7 v -7 z m 1,1 h 5 v 5 H 5 Z" />
<path d="m 13,42 c 0,0 0,1 0,1 0,0 1,0 1,0 0,0 0,1 0,1 1,0 1,0 2,0 0,-0 0,-0 0,-1 -0,0 -0,0 -1,0 0,-0 0,-0 0,-1 -0,0 -1,0 -2,0 z" />
<rect x="18" y="42" width="1" height="1" />
<path d="m 20,42 c 0,0 0,1 0,1 0,0 1,0 1,0 0,1 0,2 0,3 1,0 2,0 3,0 0,-0 0,-0 0,-1 -0,0 -0,0 -1,0 0,-0 0,-0 0,-1 -0,0 -0,0 -1,0 0,-0 0,-0 0,-1 0,0 1,0 1,0 0,-0 0,-0 0,-1 -1,0 -2,0 -3,0 z" />
<rect x="26" y="42" width="1" height="1" />
<rect x="32" y="42" width="1" height="1" />
<rect x="42" y="42" width="1" height="1" />
<path d="m 48,43 c 0,0 0,1 0,1 -0,0 -0,0 -1,0 0,0 0,1 0,1 1,0 1,0 2,0 0,-0 0,-1 0,-2 -0,0 -0,0 -1,0 z" />
<rect x="6" y="44" width="3" height="3" />
<path d="m 12,44 c 0,1 0,1 0,2 0,0 1,0 1,0 0,-0 0,-0 0,-1 0,0 1,0 1,0 0,-0 0,-0 0,-1 -0,0 -1,0 -2,0 z" />
<path d="m 16,44 c 0,0 0,1 0,1 -0,0 -0,0 -1,0 0,0 0,1 0,1 0,0 1,0 1,0 0,1 0,1 0,2 0,0 1,0 1,0 0,0 0,1 0,1 0,0 1,0 1,0 0,-0 0,-0 0,-1 0,0 1,0 1,0 0,0 0,1 0,1 0,0 1,0 1,0 0,-0 0,-0 0,-1 0,0 1,0 1,0 0,-0 0,-0 0,-1 -0,0 -0,0 -1,0 0,-1 0,-2 0,-3 -0,0 -0,0 -1,0 0,1 0,2 0,3 -0,0 -0,0 -1,0 0,-0 0,-0 0,-1 -0,0 -0,0 -1,0 0,-0 0,-0 0,-1 0,0 1,0 1,0 0,-0 0,-0 0,-1 -0,0 -1,0 -2,0 z" />
<rect x="31" y="45" width="1" height="1" />
<rect x="33" y="46" width="1" height="1" />
<rect x="44" y="46" width="1" height="1" />
<path d="m 47,46 c 0,0 0,1 0,1 -0,0 -1,0 -2,0 0,0 0,1 0,1 1,0 3,0 4,0 0,-0 0,-0 0,-1 -0,0 -0,0 -1,0 0,-0 0,-0 0,-1 -0,0 -0,0 -1,0 z" />
<path d="m 12,47 c 0,1 0,1 0,2 0,0 1,0 1,0 0,-0 0,-0 0,-1 1,0 1,0 2,0 0,-0 0,-0 0,-1 -1,0 -2,0 -3,0 z" />
<path d="m 22,47 c 0,0 0,1 0,1 -0,0 -0,0 -1,0 0,0 0,1 0,1 1,0 2,0 3,0 0,-0 0,-0 0,-1 -0,0 -0,0 -1,0 0,-0 0,-0 0,-1 -0,0 -0,0 -1,0 z" />
<path d="m 39,47 c 0,0 0,1 0,1 -0,0 -1,0 -2,0 0,0 0,1 0,1 1,0 3,0 4,0 0,-0 0,-0 0,-1 -0,0 -0,0 -1,0 0,-0 0,-0 0,-1 -0,0 -0,0 -1,0 z" />
<rect x="42" y="47" width="2" height="2" />
</svg>
