<?xml version="1.0" encoding="UTF-8" standalone="no"?><svg xmlns="http://www.w3.org/2000/svg" width="120" height="90"><path d="m 14.223704,9.59113 -2.581145,17.269546 c -8e-6,0 13.709006,-2.71399 13.391828,2.606306 -0.301266,5.05352 -13.721059,-0.213108 -13.721059,-0.213108 l -1.313326,8.259464 c 0,0 14.522345,5.102398 21.150869,-1.107407 A 30.562058,30.562058 0 0 0 28.015406,49.846848 30.562058,30.562058 0 0 0 58.577435,80.40887 30.562058,30.562058 0 0 0 89.139458,49.846848 30.562058,30.562058 0 0 0 86.676827,37.842561 c 4.432806,1.319242 21.707203,5.54104 23.232773,-8.285792 1.39247,-12.62024 -13.762958,-9.922364 -13.762958,-9.922364 l 0,-2.15854 11.731338,0 0,-7.884735 -18.020199,0 -2.581154,17.269545 c 0,0 13.710203,-2.713989 13.393033,2.606306 -0.30127,5.05352 -13.721073,-0.213108 -13.721073,-0.213108 l -1.095434,6.882679 A 30.562058,30.562058 0 0 0 58.577435,19.284827 30.562058,30.562058 0 0 0 33.772723,32.057708 c 0.229369,-0.760643 0.401056,-1.589399 0.501632,-2.500939 C 35.666818,16.936529 20.51138,19.634405 20.51138,19.634405 l 0,-2.15854 11.732527,0 0,-7.884735 -18.020203,0 z M 58.577435,29.088662 A 20.759135,20.759135 0 0 1 79.336822,49.846848 20.759135,20.759135 0 0 1 58.577435,70.606217 20.759135,20.759135 0 0 1 37.81805,49.846848 20.759135,20.759135 0 0 1 58.577435,29.088662 Z" /></svg>
