<svg width="1199" height="1199" viewBox="0 0 1199 1199" fill="none" xmlns="http://www.w3.org/2000/svg">
<path d="M299.552 797.6L280.148 857.132L261.536 797.6H237.512L217.976 856.604L199.364 797.6H172.436L202.4 890H230.384L248.864 833.768L266.552 890H294.536L324.5 797.6H299.552Z" fill="white"/>
<path d="M379.172 891.848C408.74 891.848 430.52 871.52 430.52 843.8C430.52 816.08 408.74 795.752 379.172 795.752C349.604 795.752 327.824 816.08 327.824 843.8C327.824 871.52 349.604 891.848 379.172 891.848ZM379.172 870.2C365.18 870.2 354.224 859.772 354.224 843.8C354.224 827.828 365.18 817.4 379.172 817.4C393.164 817.4 404.12 827.828 404.12 843.8C404.12 859.772 393.164 870.2 379.172 870.2Z" fill="white"/>
<path d="M501.365 890H529.349L509.417 860.96C520.901 855.416 527.501 845.384 527.501 831.788C527.501 810.668 511.661 797.6 486.449 797.6H444.209V890H470.345V865.448H484.601L501.365 890ZM501.101 831.788C501.101 840.236 495.689 845.252 484.865 845.252H470.345V818.192H484.865C495.689 818.192 501.101 823.208 501.101 831.788Z" fill="white"/>
<path d="M541.92 890H585.612C616.236 890 637.224 872.18 637.224 843.8C637.224 815.42 616.236 797.6 585.612 797.6H541.92V890ZM568.056 869.144V818.456H584.556C600.264 818.456 610.824 827.828 610.824 843.8C610.824 859.772 600.264 869.144 584.556 869.144H568.056Z" fill="white"/>
<path d="M697.042 891.848C714.07 891.848 727.798 885.644 736.774 874.424L720.142 859.376C714.334 866.372 707.206 870.2 698.362 870.2C683.182 870.2 672.622 859.64 672.622 843.8C672.622 827.96 683.182 817.4 698.362 817.4C707.206 817.4 714.334 821.228 720.142 828.224L736.774 813.176C727.798 801.956 714.07 795.752 697.042 795.752C667.738 795.752 646.222 815.684 646.222 843.8C646.222 871.916 667.738 891.848 697.042 891.848Z" fill="white"/>
<path d="M816.049 890H843.241L802.321 797.6H776.581L735.793 890H762.457L769.717 872.048H808.789L816.049 890ZM777.373 852.776L789.253 823.208L801.133 852.776H777.373Z" fill="white"/>
<path d="M958.098 890L957.834 797.6H936.318L904.638 850.928L872.166 797.6H850.65V890H874.806V842.348L898.434 880.892H910.05L933.81 841.028L934.074 890H958.098Z" fill="white"/>
<path d="M1018.83 797.6H976.592V890H1002.73V865.844H1018.83C1044.04 865.844 1059.88 852.776 1059.88 831.788C1059.88 810.668 1044.04 797.6 1018.83 797.6ZM1017.25 845.252H1002.73V818.192H1017.25C1028.07 818.192 1033.48 823.208 1033.48 831.788C1033.48 840.236 1028.07 845.252 1017.25 845.252Z" fill="white"/>
<path d="M295.849 937L279.739 985.15L263.809 937H253.009L236.719 984.88L221.059 937H208.909L229.789 1000H242.299L258.139 953.38L273.709 1000H286.129L307.01 937H295.849Z" fill="white"/>
<path d="M361.68 1000H373.92L345.48 937H333.96L305.61 1000H317.67L323.88 985.42H355.38L361.68 1000ZM327.84 976.24L339.63 948.7L351.51 976.24H327.84Z" fill="white"/>
<path d="M435.752 1000L421.262 979.3C429.812 975.97 434.672 968.95 434.672 959.41C434.672 945.46 424.412 937 407.852 937H381.932V1000H393.632V981.64H407.852C408.662 981.64 409.472 981.64 410.282 981.55L423.152 1000H435.752ZM422.882 959.41C422.882 967.33 417.572 972.01 407.312 972.01H393.632V946.9H407.312C417.572 946.9 422.882 951.49 422.882 959.41Z" fill="white"/>
<path d="M467.292 1000.9C484.572 1000.9 492.762 992.26 492.762 982.18C492.762 959.05 455.412 967.78 455.412 954.37C455.412 949.6 459.372 945.82 469.092 945.82C474.582 945.82 480.792 947.44 486.462 950.77L490.152 941.68C484.662 938.08 476.742 936.1 469.182 936.1C451.902 936.1 443.802 944.74 443.802 954.91C443.802 978.31 481.242 969.4 481.242 982.99C481.242 987.67 477.102 991.18 467.292 991.18C459.552 991.18 451.542 988.3 446.502 984.25L442.452 993.34C447.672 997.84 457.482 1000.9 467.292 1000.9Z" fill="white"/>
<path d="M515.073 990.1L552.153 944.83V937H500.223V946.9H536.673L499.593 992.17V1000H553.323V990.1H515.073Z" fill="white"/>
<path d="M611.201 1000H623.441L595.001 937H583.481L555.131 1000H567.191L573.401 985.42H604.901L611.201 1000ZM577.361 976.24L589.151 948.7L601.031 976.24H577.361Z" fill="white"/>
<path d="M709.023 937L692.913 985.15L676.983 937H666.183L649.893 984.88L634.233 937H622.083L642.963 1000H655.473L671.313 953.38L686.883 1000H699.303L720.183 937H709.023Z" fill="white"/>
<path d="M774.853 1000H787.093L758.653 937H747.133L718.783 1000H730.843L737.053 985.42H768.553L774.853 1000ZM741.013 976.24L752.803 948.7L764.683 976.24H741.013Z" fill="white"/>
<path d="M831.409 990.1L848.239 974.08C856.969 965.89 858.679 960.31 858.679 954.19C858.679 943.03 849.859 936.1 836.179 936.1C825.829 936.1 817.099 939.97 812.239 946.54L820.429 952.84C823.939 948.34 829.069 946.27 835.189 946.27C842.929 946.27 846.889 949.6 846.889 955.36C846.889 958.87 845.809 962.56 839.689 968.41L814.669 992.17V1000H861.109V990.1H831.409Z" fill="white"/>
<path d="M893.878 1000.9C908.908 1000.9 920.248 989.2 920.248 968.5C920.248 947.8 908.908 936.1 893.878 936.1C878.938 936.1 867.598 947.8 867.598 968.5C867.598 989.2 878.938 1000.9 893.878 1000.9ZM893.878 990.73C885.328 990.73 879.388 983.71 879.388 968.5C879.388 953.29 885.328 946.27 893.878 946.27C902.518 946.27 908.458 953.29 908.458 968.5C908.458 983.71 902.518 990.73 893.878 990.73Z" fill="white"/>
<path d="M943.645 990.1L960.475 974.08C969.205 965.89 970.915 960.31 970.915 954.19C970.915 943.03 962.095 936.1 948.415 936.1C938.065 936.1 929.335 939.97 924.475 946.54L932.665 952.84C936.175 948.34 941.305 946.27 947.425 946.27C955.165 946.27 959.125 949.6 959.125 955.36C959.125 958.87 958.045 962.56 951.925 968.41L926.905 992.17V1000H973.345V990.1H943.645Z" fill="white"/>
<path d="M996.028 990.1L1012.86 974.08C1021.59 965.89 1023.3 960.31 1023.3 954.19C1023.3 943.03 1014.48 936.1 1000.8 936.1C990.448 936.1 981.718 939.97 976.858 946.54L985.048 952.84C988.558 948.34 993.688 946.27 999.808 946.27C1007.55 946.27 1011.51 949.6 1011.51 955.36C1011.51 958.87 1010.43 962.56 1004.31 968.41L979.288 992.17V1000H1025.73V990.1H996.028Z" fill="white"/>
<rect x="644" y="679" width="416" height="40" fill="white"/>
<path fill-rule="evenodd" clip-rule="evenodd" d="M495.475 452.597C492.451 445.445 488.74 438.602 484.395 432.167C475.766 419.381 464.762 408.372 451.983 399.738C411.38 372.306 358.192 372.306 317.59 399.738C311.249 404.088 305.33 409.023 299.91 414.478C288.875 425.392 280.051 438.335 273.921 452.597C258.094 490.035 262.263 532.942 285 566.629C298.045 585.969 316.418 601.105 337.891 610.202C375.31 626.037 418.195 621.867 451.865 599.117C458.213 594.777 464.133 589.841 469.545 584.377C474.997 578.954 479.93 573.032 484.278 566.688C506.937 532.973 511.101 490.107 495.357 452.656L495.475 452.597ZM278.168 499.422C278.164 484.469 281.307 469.683 287.391 456.026L338.22 595.353C301.491 577.522 278.17 540.267 278.168 499.422ZM354.632 601.664C364.398 604.562 374.531 606.032 384.717 606.027C396.769 606.028 408.735 603.985 420.105 599.984C419.84 599.512 419.575 599.04 419.339 598.51L386.602 508.74L354.632 601.664ZM399.433 449.422C405.827 449.097 411.632 448.419 411.632 448.419C414.073 448.224 415.893 446.086 415.698 443.643C415.503 441.201 413.366 439.38 410.925 439.575C410.925 439.575 393.687 440.931 382.549 440.931C372.059 440.931 354.468 439.575 354.468 439.575C352.027 439.388 349.897 441.216 349.709 443.658C349.522 446.1 351.349 448.232 353.79 448.419C353.79 448.419 359.242 449.097 364.987 449.422L381.577 494.94L358.269 564.899L319.433 449.422C325.857 449.097 331.632 448.419 331.632 448.419C334.073 448.224 335.894 446.086 335.698 443.643C335.503 441.201 333.366 439.38 330.925 439.575C330.925 439.575 313.687 440.931 302.549 440.931C300.546 440.931 298.188 440.931 295.684 440.784C312.848 414.717 340.569 397.487 371.531 393.642C402.492 389.796 433.582 399.72 456.597 420.796H455.212C445.058 421.101 437.062 429.562 437.326 439.722C437.326 447.819 441.574 454.681 446.429 462.524C446.877 463.248 447.331 463.98 447.786 464.722C453.427 473.531 456.489 483.743 456.626 494.203C456.626 503.342 453.679 514.132 448.906 529.344L437.915 564.044L399.433 449.422ZM438.415 591.256L438.314 591.548L438.167 591.401C438.25 591.353 438.333 591.305 438.415 591.256ZM438.415 591.256C488.123 562.135 505.732 498.744 478.123 448.124C478.596 451.76 478.832 455.423 478.83 459.09C478.657 472.272 475.904 485.293 470.727 497.416L438.415 591.256Z" fill="white"/>
<path fill-rule="evenodd" clip-rule="evenodd" d="M239.893 498.995C239.893 419.214 304.535 354.539 384.276 354.539C464.016 354.539 528.658 419.214 528.658 498.995C528.658 578.776 464.016 643.452 384.276 643.452C304.535 643.452 239.893 578.776 239.893 498.995ZM266.563 548.344C286.355 596.158 332.987 627.335 384.713 627.335C418.626 627.343 451.153 613.869 475.137 589.879C499.12 565.889 512.594 533.348 512.594 499.417C512.606 447.665 481.456 401.001 433.671 381.188C385.886 361.375 330.877 372.314 294.297 408.905C257.717 445.495 246.771 500.53 266.563 548.344Z" fill="white"/>
<path d="M528.628 646.061C531.575 628.991 525.682 608.767 513.895 596.739C512.009 609.562 507.677 621.902 501.137 633.089C489.35 653.107 472.054 663.248 452.901 669.262C429.947 676.485 389.874 670.206 368.452 654.345C357.801 646.788 348.488 637.501 340.902 626.869C283.5 607.398 246.108 552.034 249.466 491.485C252.823 430.936 296.108 380.05 355.31 367.053C343.789 363.25 332.504 360.096 322.397 357.531C322.25 356.705 322.132 355.88 321.985 355.113C321.458 352.119 320.73 349.164 319.804 346.269L328.997 346.711C337.012 347.124 342.552 338.191 343.73 330.261C343.878 319.942 341.314 317.496 338.22 308.887C336.215 301.548 334.98 294.019 334.537 286.423C333.83 279.495 333.682 273.038 333.653 268.999C333.684 268.696 333.684 268.389 333.653 268.085C333.816 260.383 330.862 252.941 325.461 247.449C317.299 238.339 301.565 236.393 289.101 236.393C276.637 236.393 265.587 239.401 257.425 248.599C248.188 258.8 242.836 271.93 242.309 285.686C242.309 294.854 241.101 307.56 242.633 317.761C243.842 325.41 249.884 331.383 257.543 332.501C263.849 333.466 270.204 334.086 276.578 334.359L276.047 334.565C270.154 339.518 264.261 344.854 259.959 348.598C231.672 337.985 207.421 330.909 207.421 330.909C207.421 330.909 227.458 260.391 249.675 230.026C249.675 230.026 258.663 213.457 267.885 213.693C269.532 213.692 271.017 212.705 271.657 211.187H273.366V226.075C273.366 228.213 275.089 229.95 277.226 229.967H283.532C284.563 229.974 285.556 229.572 286.291 228.848C287.026 228.123 287.443 227.137 287.451 226.105V210.951C364.297 197.862 494.477 233.858 494.477 233.858C413.977 186.069 292.371 187.16 287.539 187.249V172.95C287.573 170.835 285.91 169.08 283.797 169H277.491C275.355 169 273.618 170.724 273.602 172.862V187.75H270.125C269.475 185.571 268.155 183.652 266.353 182.266C260.283 179.024 231.525 178.257 231.318 187.485C228.721 187.484 226.607 189.574 226.574 192.172V206.234C226.569 208.407 228.057 210.298 230.169 210.804L229.727 215.639C182.582 269.766 162.516 320.621 159.245 333.297C158.699 335.366 159.075 337.57 160.276 339.341C172.681 357.531 194.751 374.718 217.086 388.692C204.917 403.904 202.353 424.6 218.383 438.544C228.283 447.212 211.164 502.371 211.488 515.549V523.567C209.396 594.115 235.768 646.09 293.992 688.661C351.303 730.583 436.695 725.247 496.658 701.603C523.914 690.872 549.313 677.163 571 654.433C558.008 647.53 543.268 644.618 528.628 646.061Z" fill="white"/>
</svg>
