<?xml version="1.0" encoding="UTF-8" standalone="no"?>
<svg xmlns:svg="http://www.w3.org/2000/svg" xmlns="http://www.w3.org/2000/svg" version="1.1" viewBox="0 0 26.46 26.46" height="100" width="100">
<circle cx="13.23" cy="13.23" r="12.45" fill="#ffeeec" />
<path fill="#ff4e42" d="m 13.229167,0.81078002 c 2.694598,0 5.131086,0.79301988 7.309466,2.37906378 0.08875,0.064619 0.161761,0.1437636 0.21903,0.2374293 0.05727,0.093666 0.09443,0.1947245 0.1115,0.3031743 0.01706,0.1084519 0.01273,0.2160407 -0.013,0.3227644 -0.02574,0.1067278 -0.07092,0.2044668 -0.135534,0.2932169 -0.06462,0.088754 -0.143764,0.1617661 -0.237431,0.2190356 -0.09367,0.057267 -0.194724,0.094434 -0.303173,0.1114985 -0.10845,0.017055 -0.216039,0.012729 -0.322766,-0.012998 C 19.75053,4.6382278 19.652791,4.5930476 19.564039,4.5284264 17.67611,3.1538512 15.564486,2.4665656 13.229167,2.4665656 13.119381,2.4665677 13.013774,2.445562 12.912345,2.4035485 12.810916,2.361537 12.721387,2.3017156 12.643757,2.2240841 12.566128,2.1464546 12.506306,2.0569242 12.464293,1.955497 c -0.04201,-0.1014293 -0.06302,-0.2070373 -0.06302,-0.3168242 0,-0.1097827 0.02101,-0.2153887 0.06302,-0.316818 0.04201,-0.1014272 0.101835,-0.1909576 0.179464,-0.2685891 0.07763,-0.07763 0.167159,-0.13745088 0.268588,-0.17946238 0.101429,-0.042014 0.207036,-0.063021 0.316822,-0.0630233 z" />
<text y="16.4" x="7.8" style="font-size:8.7px;font-family:Lato" fill="#ff4e42">10</text>
</svg>
