<?xml version="1.0" encoding="UTF-8" standalone="no"?>
<svg xmlns:svg="http://www.w3.org/2000/svg" xmlns="http://www.w3.org/2000/svg" version="1.1" viewBox="0 0 26.46 26.46" height="100" width="100">
<circle cx="13.23" cy="13.23" r="12.45" fill="#ffeeec" />
<path fill="#ff4e42" d="m 13.231751,0.77999973 c 3.591544,0 6.614286,1.31123697 9.068231,3.93371197 0.07501,0.08017 0.131833,0.171639 0.170459,0.274414 0.03863,0.102773 0.05612,0.209025 0.05248,0.318755 -0.0036,0.109733 -0.02815,0.214592 -0.0735,0.314578 -0.04536,0.09998 -0.108125,0.187483 -0.188291,0.262499 -0.08017,0.07502 -0.171641,0.131839 -0.274414,0.170467 -0.102773,0.03863 -0.209025,0.05612 -0.318752,0.05248 -0.109734,-0.0036 -0.214593,-0.02814 -0.314579,-0.0735 -0.09998,-0.04536 -0.187483,-0.108122 -0.262499,-0.188291 -2.126751,-2.272812 -4.746463,-3.409218 -7.859135,-3.409218 -0.109793,2e-6 -0.215407,-0.021 -0.316842,-0.06302 -0.101435,-0.04201 -0.19097,-0.101839 -0.268605,-0.179476 -0.07763,-0.07763 -0.13746,-0.16717 -0.179476,-0.268604 -0.04201,-0.101435 -0.06302,-0.20705 -0.06302,-0.316844 0,-0.10979 0.02101,-0.215402 0.06302,-0.316838 0.04202,-0.101433 0.101841,-0.190969 0.179475,-0.268606 0.07764,-0.07763 0.16717,-0.13745897 0.268604,-0.17947397 0.101436,-0.04202 0.20705,-0.06302 0.316843,-0.06303 z" />
<text y="16.4" x="7.8" style="font-size:8.7px;font-family:Lato" fill="#ff4e42">13</text>
</svg>
