<?xml version="1.0" encoding="UTF-8" standalone="no"?>
<svg xmlns:svg="http://www.w3.org/2000/svg" xmlns="http://www.w3.org/2000/svg" version="1.1" viewBox="0 0 26.46 26.46" height="100" width="100">
<circle cx="13.23" cy="13.23" r="12.45" fill="#fff6e6" />
<path fill="#ffa400" d="m 13.229998,0.8108254 c 3.429462,0 6.35669,1.2124977 8.781685,3.6374906 2.424993,2.4249902 3.637491,5.3522176 3.637491,8.781686 0,3.429459 -1.212498,6.356687 -3.637491,8.781679 -2.425001,2.424996 -5.352226,3.637494 -8.781685,3.637494 -3.4294587,0 -6.3566867,-1.212498 -8.7816787,-3.637494 -2.4249959,-2.424992 -3.6374936,-5.35222 -3.6374936,-8.781679 0,-3.6386584 1.3402572,-6.6882978 4.0207716,-9.1489217 0.08088,-0.074244 0.17289,-0.1301858 0.276028,-0.1678278 0.103138,-0.037645 0.209553,-0.054119 0.319245,-0.04943 0.10969,0.00471 0.21431,0.030194 0.313858,0.076504 0.09955,0.046313 0.186445,0.1099096 0.260692,0.1907899 0.07424,0.080883 0.130189,0.1728923 0.167833,0.2760307 0.03764,0.1031384 0.05412,0.20955 0.04942,0.3192425 -0.0047,0.1096926 -0.03019,0.2143154 -0.0765,0.3138606 -0.04631,0.099548 -0.109909,0.1864425 -0.19079,0.2606866 -2.323114,2.1325384 -3.4846679,4.7755592 -3.4846679,7.9290652 0,2.972196 1.0508299,5.509128 3.1524919,7.61079 2.10166,2.101662 4.6385887,3.152492 7.6107897,3.152492 2.972194,0 5.509125,-1.05083 7.61079,-3.152492 2.101663,-2.10166 3.152495,-4.638589 3.152495,-7.61079 5e-6,-2.972199 -1.050827,-5.5091289 -3.152495,-7.6107911 -2.101662,-2.1016622 -4.638591,-3.1524947 -7.61079,-3.1524947 -0.109793,2.7e-6 -0.215406,-0.021009 -0.31684,-0.063022 -0.101437,-0.042013 -0.19097,-0.1018393 -0.268606,-0.1794755 -0.07763,-0.077634 -0.13746,-0.167169 -0.179476,-0.2686034 -0.04202,-0.1014345 -0.06302,-0.2070495 -0.06302,-0.3168453 0,-0.1097878 0.02101,-0.2154003 0.06302,-0.3168373 0.04202,-0.1014318 0.101842,-0.1909698 0.179476,-0.2686061 0.07764,-0.077634 0.167169,-0.1374597 0.268603,-0.1794728 0.101437,-0.042017 0.20705,-0.063026 0.316843,-0.063028 z" />
<text y="16.4" x="7.8" style="font-size:8.7px;font-family:Lato" fill="#ffa400">88</text>
</svg>
